<?xml version="1.0" encoding="UTF-8"?>
<svg version="1.1" xmlns="http://www.w3.org/2000/svg" width="1024" height="1024">
<path d="M0 0 C2.52147112 -0.29283459 4.79722305 -0.38670184 7.32076454 -0.35352612 C8.47147599 -0.35618585 8.47147599 -0.35618585 9.64543414 -0.35889933 C12.2432265 -0.36118395 14.84042345 -0.34185046 17.43814087 -0.32279968 C19.30840005 -0.31997993 21.17866161 -0.31847953 23.0489229 -0.31819278 C28.20941682 -0.31354984 33.36968341 -0.29006743 38.53010559 -0.26365387 C44.08701746 -0.2384608 49.64395623 -0.23053268 55.20091248 -0.22055054 C64.83572649 -0.20086007 74.4704552 -0.17013299 84.10521317 -0.13199425 C98.03559509 -0.0768673 111.96598389 -0.03825396 125.8964303 -0.003723 C148.49545083 0.05274652 171.0944066 0.12262002 193.69335938 0.20092773 C215.65134992 0.27698263 237.60934567 0.34674269 259.56738281 0.40795898 C260.24392709 0.40984762 260.92047136 0.41173625 261.61751698 0.41368212 C268.41149759 0.43264116 275.20547854 0.451472 281.99945976 0.4702089 C338.99970541 0.62741999 395.99986747 0.80627714 453 1 C452.06201117 2.25136267 451.12392147 3.50264974 450.18579102 4.75390625 C449.66340347 5.4507251 449.14101593 6.14754395 448.60279846 6.86547852 C441.15620115 16.78245955 433.59443384 26.58669228 425.74047852 36.18505859 C420.39841818 42.7163066 415.191614 49.34895718 410 56 C403.69420522 64.07843402 397.32260958 72.09379347 390.84082031 80.03198242 C386.843409 84.93622488 382.9299561 89.89993831 379.04760742 94.89550781 C375.29467918 99.69471953 371.3701407 104.33644304 367.35107422 108.91479492 C364.78274851 111.57031339 364.78274851 111.57031339 364 115 C362.36106893 116.6939482 360.68898768 118.35595737 359 120 C353.22207871 126.61601568 347.7853945 133.50833378 342.38818359 140.43530273 C338.67042501 145.18950775 334.84995968 149.85247033 331 154.5 C326.28690873 160.19140028 321.65546888 165.9332479 317.11328125 171.76171875 C313.09081014 176.91330455 308.9665222 181.9784561 304.83349609 187.04150391 C301.36094604 191.30331659 297.941925 195.60159872 294.5625 199.9375 C288.77932393 207.34550842 282.79653033 214.58435203 276.80273438 221.82226562 C273.84259156 225.39816946 270.88940956 228.97979842 267.9375 232.5625 C267.06883301 233.61679199 267.06883301 233.61679199 266.18261719 234.69238281 C260.63296441 241.43457429 255.1257517 248.2108498 249.62646484 254.99414062 C246.83626994 258.43518555 244.04329498 261.87397141 241.25 265.3125 C240.43438599 266.31651855 240.43438599 266.31651855 239.60229492 267.34082031 C235.0810214 272.90440479 230.54384025 278.45483199 226 284 C223.75094603 286.74840686 221.50232021 289.49716329 219.25390625 292.24609375 C217.74201773 294.09337522 216.22898251 295.93971875 214.71484375 297.78515625 C211.20326134 302.06772073 207.70351917 306.3579309 204.25 310.6875 C199.11188311 317.12795147 193.90524523 323.51257114 188.70556641 329.90332031 C185.42848479 333.93188844 182.15432556 337.96283262 178.88061523 341.99414062 C176.15039757 345.35567235 173.41759962 348.7150438 170.6796875 352.0703125 C165.58572346 358.31779692 160.52013033 364.58109668 155.5625 370.9375 C150.34701297 377.62020097 144.96075528 384.15539251 139.55859375 390.6875 C135.52825146 395.56314514 131.54050624 400.47284156 127.55664062 405.38647461 C123.78886905 410.03288958 120.00142188 414.66224352 116.1953125 419.27734375 C114.22400757 421.72218279 112.28912659 424.18987513 110.36279297 426.67016602 C109.73291473 427.4809108 109.1030365 428.29165558 108.45407104 429.12696838 C107.9742276 429.74506882 107.49438416 430.36316925 107 431 C131.18397308 431.09372675 155.36791867 431.16411748 179.55203724 431.20724869 C190.78288177 431.22781368 202.01361299 431.25581747 213.24438477 431.30175781 C223.04096502 431.34181215 232.83746315 431.36747679 242.63412303 431.37635398 C247.81428401 431.38153743 252.99421021 431.3935919 258.17429543 431.42292023 C263.06544392 431.45038424 267.95626439 431.45838347 272.84748268 431.45243073 C274.6278462 431.45351728 276.40822248 431.46128442 278.18851852 431.4768219 C289.28757947 431.56880981 299.42535438 430.44072135 310.23333263 427.85903549 C314 427 314 427 317 427 C317.33 426.34 317.66 425.68 318 425 C319.93579102 424.32421875 319.93579102 424.32421875 322.44140625 423.6875 C328.01360832 422.10819687 332.86001866 419.75114527 337.9375 417 C338.77345703 416.56171875 339.60941406 416.1234375 340.47070312 415.671875 C344.14980152 413.70968919 347.0675847 411.96949068 350 409 C351.70804312 408.03884312 353.41668293 407.07868833 355.13134766 406.12939453 C358.26812601 404.2335575 360.94622363 401.85687366 363.6875 399.4375 C364.29198975 398.90938721 364.89647949 398.38127441 365.51928711 397.8371582 C366.7582201 396.75079917 367.99432838 395.66120993 369.22753906 394.56835938 C370.84859149 393.13397359 372.48151681 391.71452648 374.1171875 390.296875 C385.02121296 380.63654475 401.28783536 366.13649392 406 352 C406.87785156 351.13955078 406.87785156 351.13955078 407.7734375 350.26171875 C410.57777242 347.41310485 412.556603 344.20472056 414.625 340.8125 C415.05304932 340.11995117 415.48109863 339.42740234 415.92211914 338.71386719 C419.60367272 332.72622655 423.17224308 326.6715215 426.68798828 320.58520508 C427.45072868 319.27110694 428.22523133 317.96373198 429.01391602 316.66503906 C430.09331921 314.89863042 430.09331921 314.89863042 431.1796875 312.53125 C434.43774861 309.7905634 438.60454593 310.59468646 442.6875 310.75 C443.58017578 310.76804687 444.47285156 310.78609375 445.39257812 310.8046875 C447.59613504 310.85182241 449.79752601 310.91759343 452 311 C451.38958493 317.39886602 449.94126381 323.24563993 448.11328125 329.3984375 C447.82007996 330.40441986 447.52687866 331.41040222 447.22479248 332.4468689 C446.59106626 334.61958234 445.95469402 336.79152541 445.31594849 338.96276855 C443.5880438 344.83851683 441.88094779 350.72031443 440.171875 356.6015625 C439.82065079 357.80852783 439.46942657 359.01549316 439.1075592 360.2590332 C435.96951587 371.0605777 432.92228633 381.88625681 429.90548706 392.72219849 C424.75937373 411.20576776 419.57413253 429.678284 414.32955933 448.13415527 C413.61356364 450.65664601 412.8994524 453.17967245 412.18728638 455.70324707 C411.19764315 459.20857767 410.20128068 462.71192912 409.203125 466.21484375 C408.90794479 467.26544479 408.61276459 468.31604584 408.30863953 469.39848328 C408.03308731 470.36002823 407.7575351 471.32157318 407.47363281 472.31225586 C407.23606262 473.14961777 406.99849243 473.98697968 406.75372314 474.84971619 C406 477 406 477 404 480 C401.4534536 480.38015819 401.4534536 480.38015819 398.1559 480.38755417 C396.90293017 480.39762741 395.64996034 480.40770065 394.35902172 480.41807914 C392.95529451 480.41413933 391.55156805 480.40992169 390.14784241 480.40545654 C388.66610799 480.41160689 387.18437852 480.41906911 385.70265669 480.42773652 C381.61385714 480.44780393 377.52522994 480.44907282 373.43638933 480.4473989 C369.02963026 480.44882808 364.62294063 480.4674629 360.21621704 480.48399353 C351.56058131 480.51371784 342.90498918 480.52741502 334.24930943 480.53589597 C324.12049664 480.54644567 313.99174462 480.57299745 303.86296528 480.60024002 C285.72075112 480.64850765 267.57853791 480.68253353 249.4362793 480.70849609 C231.95577946 480.73352716 214.47533248 480.76773354 196.99487305 480.81298828 C195.92655591 480.81575251 194.85823878 480.81851674 193.7575484 480.82136473 C192.15749957 480.82550827 192.15749957 480.82550827 190.52512652 480.82973552 C188.3757525 480.83529949 186.22637847 480.84085982 184.07700443 480.84641647 C183.01620287 480.84916031 181.95540131 480.85190415 180.86245424 480.85473113 C164.07871914 480.8977508 147.29496474 480.93210176 130.5112084 480.96563159 C124.49504472 480.97774679 118.4788851 480.99103798 112.46272609 481.00527947 C33.74144804 481.19084868 33.74144804 481.19084868 -4.96483517 480.35656357 C-7.10896305 480.3106027 -9.25309526 480.26484259 -11.39723206 480.21929932 C-12.91965186 480.18694974 -12.91965186 480.18694974 -14.47282761 480.15394664 C-26.9808024 479.91032887 -39.49026943 479.95395909 -52 480 C-52 479.01 -52 478.02 -52 477 C-51.34 477 -50.68 477 -50 477 C-49.59164917 476.11973145 -49.59164917 476.11973145 -49.17504883 475.22167969 C-48.02202144 473.04163622 -46.77870795 471.3403605 -45.19921875 469.453125 C-44.36185181 468.44560181 -44.36185181 468.44560181 -43.50756836 467.41772461 C-42.9069458 466.70237549 -42.30632324 465.98702637 -41.6875 465.25 C-40.41097851 463.71524271 -39.13494784 462.18007707 -37.859375 460.64453125 C-37.21291016 459.86803223 -36.56644531 459.0915332 -35.90039062 458.29150391 C-33.05470297 454.86015443 -30.24407938 451.40085596 -27.4375 447.9375 C-26.90890381 447.28595947 -26.38030762 446.63441895 -25.83569336 445.96313477 C-24.76574492 444.64420973 -23.69600198 443.32511797 -22.62646484 442.00585938 C-11.85054352 428.71631125 -1.03307339 415.46216637 9.84741211 402.25805664 C13.07182168 398.34428754 16.29149331 394.42682908 19.5 390.5 C23.9339688 385.07335162 28.39113538 379.66593719 32.84765625 374.2578125 C36.77629967 369.48913517 40.69420839 364.7119269 44.6015625 359.92578125 C46.48639087 357.62653621 48.37754661 355.33307084 50.2734375 353.04296875 C55.80292933 346.35852539 61.30446986 339.66499265 66.625 332.8125 C70.29128809 328.09284311 74.08400443 323.51444711 78 319 C85.11793934 310.79222711 91.83950542 302.28843296 98.3125 293.5625 C101.6022046 289.13873769 105.19112781 285.01237031 108.875 280.9140625 C113.06434305 276.25014543 117.06558864 271.48932905 120.95703125 266.57421875 C127.46496383 258.37397483 134.18751703 250.34149926 140.84399414 242.26171875 C146.60301984 235.27033775 152.3541455 228.27284927 158.05078125 221.23046875 C163.69045335 214.26297724 169.36974134 207.34041234 175.18261719 200.51660156 C178.55089183 196.55436225 181.81757873 192.52187344 185.05078125 188.44921875 C189.92994407 182.31848711 194.90571013 176.26999599 199.99121094 170.30957031 C204.77944791 164.69682394 209.40848734 158.98898685 213.94042969 153.16748047 C217.72744498 148.31410006 221.63919998 143.58231551 225.59765625 138.8671875 C229.44128466 134.27983262 233.2168291 129.63722006 237 125 C238.49971592 123.16643427 239.99971683 121.33310162 241.5 119.5 C243.69225146 116.8210008 245.88419468 114.14175792 248.07421875 111.4609375 C253.31335449 105.05001724 258.57353722 98.65667765 263.83984375 92.26806641 C267.13366085 88.27110491 270.41705397 84.26613121 273.6875 80.25 C276.04563177 77.357535 278.42720929 74.48933571 280.8515625 71.65234375 C281.34309814 71.07645508 281.83463379 70.50056641 282.34106445 69.90722656 C283.28970292 68.7985142 284.24115781 67.69220243 285.19604492 66.58886719 C287.38935647 64.02696925 289.39534409 61.45698759 291.19921875 58.61328125 C291.79347656 57.75089844 292.38773438 56.88851562 293 56 C293.66 56 294.32 56 295 56 C295.33 55.01 295.66 54.02 296 53 C266.3 52.505 266.3 52.505 236 52 C235.67 52.66 235.34 53.32 235 54 C235 53.34 235 52.68 235 52 C217.6130763 52.03736268 200.22639484 52.09750751 182.8396492 52.18390274 C174.76451588 52.22351177 166.68947745 52.25599544 158.61425781 52.27099609 C151.56614614 52.28410763 144.51824486 52.3113101 137.4702518 52.35461307 C133.74718874 52.37701726 130.02438308 52.39292359 126.30124664 52.39188385 C106.76826993 52.39222341 87.68814063 52.93963054 69.25 60.1875 C68.47889893 60.48301758 67.70779785 60.77853516 66.91333008 61.08300781 C53.08953692 66.57222164 41.28901375 74.40097954 30 84 C29.06027344 84.79792969 28.12054688 85.59585938 27.15234375 86.41796875 C10.30627721 101.18050971 -2.80315428 120.62205556 -13.7109375 140.046875 C-14.13632812 140.69140625 -14.56171875 141.3359375 -15 142 C-15.66 142 -16.32 142 -17 142 C-17.33 142.66 -17.66 143.32 -18 144 C-18.99 143.67 -19.98 143.34 -21 143 C-23.57265818 142.92970879 -26.11641431 142.90629168 -28.6875 142.9375 C-29.7403418 142.94426758 -29.7403418 142.94426758 -30.81445312 142.95117188 C-32.54300538 142.96293073 -34.27151365 142.98086546 -36 143 C-37.49615694 140.00768613 -36.44629077 138.1006795 -35.62329102 134.88793945 C-35.46350549 134.25610245 -35.30371996 133.62426544 -35.13909245 132.97328186 C-34.60071419 130.85151778 -34.05226678 128.73248553 -33.50390625 126.61328125 C-33.1192755 125.10548133 -32.73528666 123.59751752 -32.35189819 122.08940125 C-31.31291182 118.00965119 -30.26532926 113.93215348 -29.21604538 109.8550415 C-28.1277954 105.62133284 -27.04665395 101.38581079 -25.96508789 97.15039062 C-24.6363976 91.9488137 -23.30699573 86.74742374 -21.97416687 81.54690552 C-19.22732662 70.82642919 -16.50530731 60.10005152 -13.81011391 49.36647606 C-12.70983632 44.9860922 -11.60649706 40.60647814 -10.50356579 36.22676182 C-9.63509222 32.77679699 -8.76854754 29.32636911 -7.90603638 25.87490845 C-6.95274561 22.06084885 -5.99040278 18.24910541 -5.02734375 14.4375 C-4.60828262 12.75064339 -4.60828262 12.75064339 -4.18075562 11.02970886 C-3.92122101 10.00799088 -3.6616864 8.98627289 -3.39428711 7.93359375 C-3.17179794 7.04728271 -2.94930878 6.16097168 -2.72007751 5.24780273 C-2 3 -2 3 0 0 Z " fill="#000000" transform="translate(275,263)"/>
<path d="M0 0 C2.94472661 2.11197598 5.48846446 4.39273329 8 7 C8.55429687 7.54527344 9.10859375 8.09054687 9.6796875 8.65234375 C15.65990542 14.97471345 18.96645028 23.50455608 19.01953125 32.19921875 C18.31672808 44.04078918 15.5865418 53.46098519 7 62 C-1.7595992 68.73312476 -10.18337957 72.58558697 -21.25 72.5 C-22.49463013 72.49468262 -22.49463013 72.49468262 -23.7644043 72.48925781 C-30.95942247 72.29632815 -36.72014906 70.57673998 -43 67 C-43.63292969 66.65453125 -44.26585937 66.3090625 -44.91796875 65.953125 C-48.4118792 63.84815179 -50.68822516 61.32317633 -53 58 C-53.48597656 57.32324219 -53.97195313 56.64648438 -54.47265625 55.94921875 C-60.15829765 47.41377183 -62.88727844 37.94043765 -61.4375 27.6875 C-59.06631824 16.81476412 -54.28156046 7.82796052 -45.12109375 1.3515625 C-31.7714944 -7.15481204 -13.78831111 -8.51315632 0 0 Z " fill="#010101" transform="translate(818,673)"/>
<path d="M0 0 C0.33 0 0.66 0 1 0 C1 138.93 1 277.86 1 421 C0.67 421 0.34 421 0 421 C0 282.07 0 143.14 0 0 Z " fill="#999899" transform="translate(0,603)"/>
<path d="M0 0 C0.33 0 0.66 0 1 0 C1 135.63 1 271.26 1 411 C0.67 411 0.34 411 0 411 C0 275.37 0 139.74 0 0 Z " fill="#969697" transform="translate(0,191)"/>
<path d="M0 0 C0.33 0 0.66 0 1 0 C1 8.25 1 16.5 1 25 C0.67 25 0.34 25 0 25 C0 16.75 0 8.5 0 0 Z " fill="#9F9FA0" transform="translate(0,135)"/>
<path d="M0 0 C0.33 0 0.66 0 1 0 C1 7.59 1 15.18 1 23 C0.67 23 0.34 23 0 23 C0 15.41 0 7.82 0 0 Z " fill="#9C9C9D" transform="translate(0,167)"/>
<path d="M0 0 C0.33 0 0.66 0 1 0 C1 4.95 1 9.9 1 15 C0.67 15 0.34 15 0 15 C0 10.05 0 5.1 0 0 Z " fill="#A3A3A3" transform="translate(0,115)"/>
<path d="M0 0 C0.33 0 0.66 0 1 0 C1 2.31 1 4.62 1 7 C0.67 7 0.34 7 0 7 C0 4.69 0 2.38 0 0 Z " fill="#A5A4A5" transform="translate(0,107)"/>
<path d="M0 0 C0.33 0 0.66 0 1 0 C1 2.31 1 4.62 1 7 C0.67 7 0.34 7 0 7 C0 4.69 0 2.38 0 0 Z " fill="#AEAEAF" transform="translate(0,27)"/>
<path d="M0 0 C0.33 0 0.66 0 1 0 C1 1.65 1 3.3 1 5 C0.67 5 0.34 5 0 5 C0 3.35 0 1.7 0 0 Z " fill="#A6A5A6" transform="translate(0,91)"/>
<path d="M0 0 C0.33 0 0.66 0 1 0 C1 1.65 1 3.3 1 5 C0.67 5 0.34 5 0 5 C0 3.35 0 1.7 0 0 Z " fill="#B3B3B4" transform="translate(0,3)"/>
<path d="M0 0 C4 1 4 1 4 1 Z " fill="#242524" transform="translate(236,407)"/>
<path d="M0 0 C0.33 0.66 0.66 1.32 1 2 C0.34 1.67 -0.32 1.34 -1 1 C-0.67 0.67 -0.34 0.34 0 0 Z " fill="#11110F" transform="translate(405,666)"/>
<path d="M0 0 C0.99 0.495 0.99 0.495 2 1 C1.01 1.495 1.01 1.495 0 2 C0 1.34 0 0.68 0 0 Z " fill="#11100F" transform="translate(561,325)"/>
<path d="M0 0 C0.33 0.66 0.66 1.32 1 2 C0.34 1.67 -0.32 1.34 -1 1 C-0.67 0.67 -0.34 0.34 0 0 Z " fill="#151514" transform="translate(702,298)"/>
<path d="" fill="#A2A3A2" transform="translate(0,0)"/>
<path d="" fill="#A5A5A5" transform="translate(0,0)"/>
<path d="" fill="#A6A6A6" transform="translate(0,0)"/>
<path d="" fill="#A6A6A8" transform="translate(0,0)"/>
<path d="" fill="#A8A8A9" transform="translate(0,0)"/>
<path d="" fill="#A8A9A9" transform="translate(0,0)"/>
<path d="" fill="#ADADAE" transform="translate(0,0)"/>
<path d="" fill="#AFAEB0" transform="translate(0,0)"/>
<path d="" fill="#1C1C1E" transform="translate(0,0)"/>
<path d="" fill="#1D1F1F" transform="translate(0,0)"/>
<path d="" fill="#1B1D1C" transform="translate(0,0)"/>
<path d="" fill="#242526" transform="translate(0,0)"/>
<path d="" fill="#1A1817" transform="translate(0,0)"/>
<path d="M0 0 C2 1 2 1 2 1 Z " fill="#111212" transform="translate(385,693)"/>
<path d="M0 0 C2 1 2 1 2 1 Z " fill="#161616" transform="translate(616,676)"/>
<path d="" fill="#131512" transform="translate(0,0)"/>
<path d="" fill="#131114" transform="translate(0,0)"/>
<path d="" fill="#131415" transform="translate(0,0)"/>
<path d="" fill="#151412" transform="translate(0,0)"/>
<path d="" fill="#151514" transform="translate(0,0)"/>
<path d="M0 0 C2 1 2 1 2 1 Z " fill="#171615" transform="translate(573,459)"/>
<path d="" fill="#141515" transform="translate(0,0)"/>
<path d="" fill="#1F1E20" transform="translate(0,0)"/>
<path d="" fill="#1C1A1B" transform="translate(0,0)"/>
<path d="M0 0 C2 1 2 1 2 1 Z " fill="#171516" transform="translate(342,324)"/>
<path d="" fill="#1A1D1C" transform="translate(0,0)"/>
<path d="M0 0 C2 1 2 1 2 1 Z " fill="#191918" transform="translate(523,262)"/>
<path d="" fill="#AAAAAA" transform="translate(0,0)"/>
<path d="" fill="#B4B4B5" transform="translate(0,0)"/>
<path d="" fill="#414241" transform="translate(0,0)"/>
<path d="" fill="#1E1D1D" transform="translate(0,0)"/>
<path d="" fill="#1B1C1D" transform="translate(0,0)"/>
<path d="" fill="#242223" transform="translate(0,0)"/>
<path d="" fill="#202121" transform="translate(0,0)"/>
<path d="" fill="#1C191A" transform="translate(0,0)"/>
<path d="" fill="#21201F" transform="translate(0,0)"/>
<path d="" fill="#1D1F1D" transform="translate(0,0)"/>
<path d="" fill="#1C1E1C" transform="translate(0,0)"/>
<path d="" fill="#191718" transform="translate(0,0)"/>
<path d="" fill="#1A1B19" transform="translate(0,0)"/>
<path d="" fill="#181918" transform="translate(0,0)"/>
<path d="" fill="#191718" transform="translate(0,0)"/>
<path d="" fill="#171719" transform="translate(0,0)"/>
<path d="" fill="#171717" transform="translate(0,0)"/>
<path d="" fill="#232223" transform="translate(0,0)"/>
<path d="" fill="#181617" transform="translate(0,0)"/>
<path d="" fill="#171616" transform="translate(0,0)"/>
<path d="" fill="#141515" transform="translate(0,0)"/>
<path d="" fill="#181313" transform="translate(0,0)"/>
<path d="" fill="#171817" transform="translate(0,0)"/>
<path d="" fill="#161514" transform="translate(0,0)"/>
<path d="" fill="#212120" transform="translate(0,0)"/>
<path d="" fill="#171716" transform="translate(0,0)"/>
<path d="" fill="#161614" transform="translate(0,0)"/>
<path d="" fill="#171614" transform="translate(0,0)"/>
<path d="" fill="#1F1D1E" transform="translate(0,0)"/>
<path d="" fill="#1D1D1C" transform="translate(0,0)"/>
<path d="" fill="#121211" transform="translate(0,0)"/>
<path d="" fill="#232224" transform="translate(0,0)"/>
<path d="" fill="#222221" transform="translate(0,0)"/>
<path d="" fill="#151616" transform="translate(0,0)"/>
<path d="" fill="#121211" transform="translate(0,0)"/>
<path d="" fill="#161616" transform="translate(0,0)"/>
<path d="" fill="#161614" transform="translate(0,0)"/>
<path d="" fill="#141113" transform="translate(0,0)"/>
<path d="" fill="#121213" transform="translate(0,0)"/>
<path d="" fill="#141315" transform="translate(0,0)"/>
<path d="" fill="#161415" transform="translate(0,0)"/>
<path d="" fill="#121112" transform="translate(0,0)"/>
<path d="" fill="#141212" transform="translate(0,0)"/>
<path d="" fill="#191D1B" transform="translate(0,0)"/>
<path d="" fill="#1B1B1D" transform="translate(0,0)"/>
<path d="" fill="#121312" transform="translate(0,0)"/>
<path d="" fill="#141212" transform="translate(0,0)"/>
<path d="" fill="#121312" transform="translate(0,0)"/>
<path d="" fill="#151514" transform="translate(0,0)"/>
<path d="" fill="#141515" transform="translate(0,0)"/>
<path d="" fill="#131112" transform="translate(0,0)"/>
<path d="" fill="#151515" transform="translate(0,0)"/>
<path d="" fill="#161413" transform="translate(0,0)"/>
<path d="" fill="#151311" transform="translate(0,0)"/>
<path d="" fill="#131312" transform="translate(0,0)"/>
<path d="" fill="#111414" transform="translate(0,0)"/>
<path d="" fill="#222425" transform="translate(0,0)"/>
<path d="" fill="#151213" transform="translate(0,0)"/>
<path d="" fill="#131310" transform="translate(0,0)"/>
<path d="" fill="#121112" transform="translate(0,0)"/>
<path d="" fill="#232422" transform="translate(0,0)"/>
<path d="" fill="#141311" transform="translate(0,0)"/>
<path d="" fill="#141212" transform="translate(0,0)"/>
<path d="" fill="#121212" transform="translate(0,0)"/>
<path d="" fill="#151414" transform="translate(0,0)"/>
<path d="" fill="#141313" transform="translate(0,0)"/>
<path d="" fill="#111212" transform="translate(0,0)"/>
<path d="" fill="#151313" transform="translate(0,0)"/>
<path d="" fill="#121112" transform="translate(0,0)"/>
<path d="" fill="#141413" transform="translate(0,0)"/>
<path d="" fill="#141413" transform="translate(0,0)"/>
<path d="" fill="#131312" transform="translate(0,0)"/>
<path d="" fill="#131212" transform="translate(0,0)"/>
<path d="" fill="#111112" transform="translate(0,0)"/>
<path d="" fill="#12120F" transform="translate(0,0)"/>
<path d="" fill="#131314" transform="translate(0,0)"/>
<path d="" fill="#151414" transform="translate(0,0)"/>
<path d="" fill="#141414" transform="translate(0,0)"/>
<path d="" fill="#161514" transform="translate(0,0)"/>
<path d="" fill="#131415" transform="translate(0,0)"/>
<path d="" fill="#151514" transform="translate(0,0)"/>
<path d="" fill="#151315" transform="translate(0,0)"/>
<path d="" fill="#131415" transform="translate(0,0)"/>
<path d="" fill="#141312" transform="translate(0,0)"/>
<path d="" fill="#131213" transform="translate(0,0)"/>
<path d="" fill="#131213" transform="translate(0,0)"/>
<path d="" fill="#141415" transform="translate(0,0)"/>
<path d="" fill="#151613" transform="translate(0,0)"/>
<path d="" fill="#131412" transform="translate(0,0)"/>
<path d="" fill="#151513" transform="translate(0,0)"/>
<path d="" fill="#151513" transform="translate(0,0)"/>
<path d="" fill="#141514" transform="translate(0,0)"/>
<path d="" fill="#161614" transform="translate(0,0)"/>
<path d="" fill="#141414" transform="translate(0,0)"/>
<path d="" fill="#141514" transform="translate(0,0)"/>
<path d="" fill="#131513" transform="translate(0,0)"/>
<path d="" fill="#131312" transform="translate(0,0)"/>
<path d="" fill="#131313" transform="translate(0,0)"/>
<path d="" fill="#161516" transform="translate(0,0)"/>
<path d="" fill="#121210" transform="translate(0,0)"/>
<path d="" fill="#131411" transform="translate(0,0)"/>
<path d="" fill="#161516" transform="translate(0,0)"/>
<path d="" fill="#151417" transform="translate(0,0)"/>
<path d="" fill="#151311" transform="translate(0,0)"/>
<path d="" fill="#141616" transform="translate(0,0)"/>
<path d="" fill="#171414" transform="translate(0,0)"/>
<path d="" fill="#131414" transform="translate(0,0)"/>
<path d="" fill="#141415" transform="translate(0,0)"/>
<path d="" fill="#252524" transform="translate(0,0)"/>
<path d="" fill="#141413" transform="translate(0,0)"/>
<path d="" fill="#242624" transform="translate(0,0)"/>
<path d="" fill="#141513" transform="translate(0,0)"/>
<path d="" fill="#161614" transform="translate(0,0)"/>
<path d="" fill="#171515" transform="translate(0,0)"/>
<path d="" fill="#141515" transform="translate(0,0)"/>
<path d="" fill="#171614" transform="translate(0,0)"/>
<path d="" fill="#181917" transform="translate(0,0)"/>
<path d="" fill="#141414" transform="translate(0,0)"/>
<path d="" fill="#191718" transform="translate(0,0)"/>
<path d="" fill="#131517" transform="translate(0,0)"/>
<path d="" fill="#141412" transform="translate(0,0)"/>
<path d="" fill="#1E1B1C" transform="translate(0,0)"/>
<path d="" fill="#131310" transform="translate(0,0)"/>
<path d="" fill="#1A1A15" transform="translate(0,0)"/>
<path d="" fill="#1A1A19" transform="translate(0,0)"/>
<path d="" fill="#1D1C1B" transform="translate(0,0)"/>
<path d="" fill="#131413" transform="translate(0,0)"/>
<path d="" fill="#191B18" transform="translate(0,0)"/>
<path d="" fill="#11110F" transform="translate(0,0)"/>
<path d="" fill="#181616" transform="translate(0,0)"/>
<path d="" fill="#131010" transform="translate(0,0)"/>
<path d="" fill="#181919" transform="translate(0,0)"/>
<path d="" fill="#181717" transform="translate(0,0)"/>
<path d="" fill="#101210" transform="translate(0,0)"/>
<path d="" fill="#181918" transform="translate(0,0)"/>
<path d="" fill="#181816" transform="translate(0,0)"/>
<path d="" fill="#141313" transform="translate(0,0)"/>
<path d="" fill="#131413" transform="translate(0,0)"/>
<path d="" fill="#131614" transform="translate(0,0)"/>
<path d="" fill="#1C191B" transform="translate(0,0)"/>
<path d="" fill="#151314" transform="translate(0,0)"/>
<path d="" fill="#181616" transform="translate(0,0)"/>
<path d="" fill="#1F211F" transform="translate(0,0)"/>
<path d="" fill="#212020" transform="translate(0,0)"/>
<path d="" fill="#26282C" transform="translate(0,0)"/>
<path d="" fill="#1A1919" transform="translate(0,0)"/>
<path d="" fill="#1A1A19" transform="translate(0,0)"/>
<path d="" fill="#181917" transform="translate(0,0)"/>
<path d="" fill="#191918" transform="translate(0,0)"/>
<path d="" fill="#181819" transform="translate(0,0)"/>
<path d="" fill="#191A19" transform="translate(0,0)"/>
<path d="" fill="#1A1A19" transform="translate(0,0)"/>
<path d="" fill="#19191B" transform="translate(0,0)"/>
<path d="" fill="#1C1B1B" transform="translate(0,0)"/>
<path d="" fill="#1C1A1C" transform="translate(0,0)"/>
<path d="" fill="#1C1A1C" transform="translate(0,0)"/>
<path d="" fill="#1C1B1A" transform="translate(0,0)"/>
<path d="" fill="#191A18" transform="translate(0,0)"/>
<path d="" fill="#1B1818" transform="translate(0,0)"/>
<path d="" fill="#191617" transform="translate(0,0)"/>
<path d="" fill="#171817" transform="translate(0,0)"/>
<path d="" fill="#171717" transform="translate(0,0)"/>
<path d="" fill="#1D1B1A" transform="translate(0,0)"/>
<path d="" fill="#1B1B18" transform="translate(0,0)"/>
<path d="" fill="#1B1A1A" transform="translate(0,0)"/>
<path d="" fill="#1D1C1D" transform="translate(0,0)"/>
<path d="" fill="#212120" transform="translate(0,0)"/>
<path d="" fill="#242221" transform="translate(0,0)"/>
<path d="" fill="#9F9C9F" transform="translate(0,0)"/>
<path d="" fill="#9F9F9F" transform="translate(0,0)"/>
<path d="" fill="#9C9E9E" transform="translate(0,0)"/>
<path d="" fill="#A7A6A6" transform="translate(0,0)"/>
<path d="" fill="#A6A4A6" transform="translate(0,0)"/>
<path d="" fill="#A6A6A6" transform="translate(0,0)"/>
<path d="" fill="#A7A5A6" transform="translate(0,0)"/>
<path d="" fill="#A8A7A6" transform="translate(0,0)"/>
<path d="" fill="#A8A8AA" transform="translate(0,0)"/>
<path d="" fill="#A9A7A9" transform="translate(0,0)"/>
<path d="" fill="#A8AAA9" transform="translate(0,0)"/>
<path d="" fill="#A9A8A9" transform="translate(0,0)"/>
<path d="" fill="#A9ABAB" transform="translate(0,0)"/>
<path d="" fill="#A7A9A9" transform="translate(0,0)"/>
<path d="" fill="#AAAAAB" transform="translate(0,0)"/>
<path d="" fill="#ABAAAB" transform="translate(0,0)"/>
<path d="" fill="#A9AAAB" transform="translate(0,0)"/>
<path d="" fill="#AAAAAD" transform="translate(0,0)"/>
<path d="" fill="#ABABAB" transform="translate(0,0)"/>
<path d="" fill="#ACACAD" transform="translate(0,0)"/>
<path d="" fill="#AFB0B0" transform="translate(0,0)"/>
<path d="" fill="#AFB1B2" transform="translate(0,0)"/>
<path d="" fill="#AFB1B3" transform="translate(0,0)"/>
<path d="" fill="#B1B0B3" transform="translate(0,0)"/>
</svg>
