<?xml version="1.0" encoding="UTF-8"?>
<svg version="1.1" xmlns="http://www.w3.org/2000/svg" width="512" height="512">
<path d="M0 0 C6.29822674 4.87415995 11.85706348 10.7086727 17.47698975 16.32981873 C18.86120837 17.70852232 18.86120837 17.70852232 20.27339101 19.11507851 C22.81518171 21.64693951 25.35389779 24.18186331 27.89206147 26.71735966 C30.63739112 29.45875975 33.38553921 32.19733228 36.133255 34.93634033 C42.75406532 41.53747181 49.3701045 48.1433751 55.98553741 54.74989495 C59.10479515 57.86476007 62.2245381 60.97913915 65.34421539 64.09358406 C75.71780688 74.45018011 86.09014882 84.80802518 96.45887375 95.16949368 C99.14395974 97.85266998 101.82905107 100.53584094 104.51416016 103.21899414 C105.18147523 103.88582547 105.8487903 104.5526568 106.53632703 105.23969514 C117.36093085 116.05598788 128.19403289 126.86372731 139.03068969 137.66794299 C150.1668115 148.77099915 161.29539427 159.88156632 172.41659379 170.99956948 C178.65692502 177.23773634 184.90050342 183.47257544 191.15251923 189.69903374 C196.47263804 194.99745328 201.78588785 200.30264161 207.09030309 205.61678439 C209.79563379 208.32666049 212.50408461 211.03320963 215.22137642 213.73109627 C218.16882815 216.65768011 221.10050735 219.59957738 224.03094482 222.54319763 C224.88929987 223.39058343 225.74765491 224.23796923 226.63202071 225.11103338 C235.08619362 233.65740869 238.30159977 241.10526569 238.31469727 253.14477539 C238.00901289 268.13416245 227.57239953 276.57691863 217.63221741 286.51495361 C216.70899813 287.44184958 215.78577885 288.36874555 214.83458322 289.32372928 C212.29132094 291.87692184 209.7449953 294.42703928 207.19809735 296.97660446 C204.44442713 299.73420407 201.69358455 302.49462222 198.94230652 305.25460815 C192.31151245 311.90508159 185.67594609 318.5507834 179.03976336 325.1958791 C175.91095143 328.32908358 172.78262559 331.46277331 169.65423393 334.5963974 C159.25131478 345.01631207 148.84714656 355.43497716 138.4393549 365.85002518 C135.74414703 368.54714272 133.04894452 371.24426561 130.35375977 373.94140625 C129.68393782 374.61171193 129.01411588 375.28201762 128.3239963 375.9726356 C117.45920466 386.84573829 106.60296619 397.72733932 95.7502516 408.61249509 C84.59747476 419.79833731 73.43718712 430.97664081 62.26946348 442.14756083 C56.00335103 448.41583768 49.74056637 454.68736208 43.48616219 460.9673233 C38.16395394 466.31123044 32.83497716 471.64826927 27.49704582 476.97647288 C24.77501824 479.69395495 22.05631761 482.41455804 19.34627914 485.14400101 C16.40655793 488.10458908 13.45152348 491.04940685 10.49476624 493.99298096 C9.21785112 495.28634994 9.21785112 495.28634994 7.91513973 496.6058476 C-0.64390513 505.07295602 -8.08532948 508.30157808 -20.14477539 508.31469727 C-35.63489557 507.99880125 -44.4035989 496.75115495 -54.625 486.47265625 C-55.62225677 485.47352972 -56.61973802 484.4746272 -57.61743164 483.47593689 C-60.21705679 480.8725305 -62.81366231 478.2661333 -65.40960693 475.65905762 C-68.06939763 472.98895726 -70.7320934 470.32175723 -73.39453125 467.65429688 C-78.59916888 462.43899962 -83.8006134 457.22053284 -89 452 C-80.85147916 442.24399507 -71.95532867 433.14400818 -63.09995651 424.03339386 C-60.12064953 420.96611422 -57.162259 417.8833937 -54.24511719 414.75683594 C-51.4015756 411.71034431 -48.51268498 408.71425111 -45.5876236 405.74601746 C-44.49118426 404.61731262 -43.41125571 403.47229167 -42.34993744 402.3105011 C-34.2746219 393.50534608 -34.2746219 393.50534608 -28.77983093 392.65737915 C-24.0936932 392.51711037 -19.59235557 393.12716242 -14.96959686 393.81794739 C-6.49602521 394.60117155 2.49473188 389.55153193 8.9375 384.47265625 C15.88830509 378.10607831 20.65057895 368.62980466 21.1484375 359.18359375 C21.20473899 354.68510474 21.12819378 350.59859881 20.18225098 346.18153381 C19.74327706 342.63853858 19.9160413 342.13266011 21.95861816 338.90525818 C22.92113909 337.89262595 23.90900891 336.90370763 24.91601562 335.93530273 C25.71823044 335.11184105 25.71823044 335.11184105 26.53665161 334.27174377 C28.30475102 332.46922158 30.10350438 330.70141467 31.90625 328.93359375 C33.14783519 327.68848421 34.3880098 326.44196661 35.62683105 325.19410706 C38.22561102 322.58657903 40.839683 319.99573685 43.46582031 317.41577148 C46.82988786 314.10860988 50.15449867 310.76481039 53.46878815 307.40785122 C56.0227184 304.82889157 58.59560497 302.26955005 61.17472839 299.71580696 C62.40843239 298.48994994 63.63637261 297.25826377 64.85835266 296.02071953 C66.56982877 294.29361867 68.30491804 292.5944084 70.04882812 290.90014648 C70.5488736 290.38547821 71.04891907 289.87080994 71.56411743 289.34054565 C73.0255127 287.95188904 73.0255127 287.95188904 76 286 C79.67346191 286.18104553 79.67346191 286.18104553 83 287 C95.38738433 287.79230502 105.26931416 286.01244206 115 278 C122.63186392 270.71503899 126.98265487 262.54908647 128 252 C128.13955613 241.30069682 125.04433778 231.28732093 118.09375 223.0703125 C110.45440939 215.5164869 101.64788937 211.93814003 91 211 C80.89744309 211.18795455 71.243376 214.3573381 63.61328125 221.11328125 C54.97450646 230.35884613 51.79672809 239.95928949 51.734375 252.5234375 C51.78557758 255.81379833 51.78557758 255.81379833 52.85400391 257.87745667 C53.93855559 260.50229961 54.26383883 262.15248961 54 265 C50.939927 269.70536697 46.93413741 273.39419827 42.890625 277.25390625 C41.7244583 278.40462361 40.56056651 279.55765061 39.39886475 280.71287537 C36.33950337 283.74163451 33.24767687 286.73508834 30.14868164 289.72320557 C27.61846244 292.17428425 25.11268618 294.64955061 22.60776138 297.12643528 C19.62682501 300.07303992 16.63529098 303.00876295 13.640625 305.94140625 C13.0671357 306.50355898 12.49364639 307.06571171 11.90277863 307.64489937 C10.28488888 309.22566208 8.66002596 310.79883601 7.03222656 312.36938477 C6.10686096 313.26601334 5.18149536 314.16264191 4.22808838 315.08644104 C2 317 2 317 0 317 C-0.21030133 298.85010398 -0.36897726 280.70052438 -0.46630955 262.54967308 C-0.51270548 254.12173089 -0.57594958 245.69454595 -0.67895508 237.26708984 C-0.76869935 229.92110299 -0.82673252 222.57566451 -0.84679645 215.22914469 C-0.85852457 211.33934235 -0.88605277 207.45110866 -0.95157051 203.56180954 C-1.01277317 199.89890652 -1.03148491 196.23821395 -1.01796913 192.57484818 C-1.02161696 190.59331267 -1.06999836 188.61201692 -1.11978149 186.63110352 C-1.03058117 178.07854577 -1.03058117 178.07854577 1.95585823 174.95311356 C4.35682678 173.36514282 4.35682678 173.36514282 6.74368382 172.16633034 C13.51737296 168.66488883 17.1931054 160.98949304 19.6875 154.1015625 C22.60002605 144.19088357 21.54221603 133.93836129 16.86328125 124.7734375 C14.39609138 120.61735109 11.60860111 117.247741 8 114 C6.88625 112.9790625 6.88625 112.9790625 5.75 111.9375 C-3.81221395 105.20048563 -14.27535925 103.54177393 -25.7578125 105.4609375 C-36.28997551 108.26731322 -44.44957126 114.81885465 -50.25 123.97265625 C-55.52901412 133.73495075 -56.09161898 144.0313864 -53.28125 154.73828125 C-50.03482965 163.73590317 -45.26501455 169.87737108 -36.84605408 174.41465759 C-31.3741623 178.0156807 -31.3741623 178.0156807 -29.87732124 181.9534626 C-29.44400516 185.59491074 -29.38897523 189.07378349 -29.46313477 192.74047852 C-29.44848903 194.11950757 -29.42873067 195.49849028 -29.40428162 196.87738037 C-29.35406277 200.60383132 -29.3790425 204.3262172 -29.42102551 208.05263257 C-29.4552688 211.9611893 -29.42985808 215.86944869 -29.4138031 219.77806091 C-29.39657526 226.33958163 -29.42909537 232.8994688 -29.49047852 239.46069336 C-29.56065721 247.03607581 -29.54825335 254.60797796 -29.49247891 262.18340164 C-29.4409429 269.48592324 -29.45157594 276.78714113 -29.48908806 284.08970451 C-29.50372214 287.19084219 -29.49609666 290.29073008 -29.47018623 293.39178658 C-29.44220175 297.04679366 -29.46863389 300.69754116 -29.53629494 304.35198975 C-29.56001658 306.32451907 -29.52995019 308.29746775 -29.49807739 310.2698822 C-29.59589641 313.83891855 -29.78569625 316.63969447 -31 320 C-33.59821232 322.43515764 -36.08068455 323.97299845 -39.25982571 325.56274319 C-46.75754585 329.49539425 -51.00184535 337.30960306 -53.71875 345.046875 C-55.81538348 352.60579043 -55.07038804 360.78491293 -53.15589905 368.32398987 C-53 372 -53 372 -55.04368591 375.00572205 C-56.04820803 376.03334392 -57.07517102 377.03932001 -58.11889648 378.02709961 C-58.67470398 378.58407532 -59.23051147 379.14105103 -59.80316162 379.71490479 C-61.64081179 381.54699144 -63.50513457 383.34913559 -65.37109375 385.15234375 C-66.65221334 386.41853886 -67.93157521 387.68651469 -69.20924377 388.95619202 C-72.57359576 392.2900275 -75.96127508 395.59914343 -79.35437012 398.90368652 C-82.81380306 402.2812202 -86.25064376 405.68157152 -89.68945312 409.08007812 C-96.43771058 415.74258794 -103.21083037 422.37920304 -110 429 C-114.28612068 427.34161797 -117.16346545 424.12066375 -120.33850098 420.92892456 C-120.97204703 420.29990962 -121.60559308 419.67089468 -122.2583375 419.02281868 C-124.38340006 416.91043251 -126.50123298 414.7909447 -128.61914062 412.67138672 C-130.13991469 411.15659594 -131.66109889 409.64221683 -133.18266296 408.1282196 C-137.31763835 404.01093351 -141.44608206 399.88715719 -145.57285881 395.76165533 C-149.01806006 392.31835226 -152.46598577 388.87778333 -155.91378069 385.43707764 C-164.04910369 377.31804799 -172.17870635 369.19332014 -180.30517578 361.06542969 C-188.68707077 352.6823336 -197.08004871 344.31044926 -205.47832537 335.94376743 C-212.68810537 328.76014592 -219.89014589 321.56882702 -227.08621931 314.37147534 C-231.38417921 310.0730056 -235.6851844 305.77769555 -239.99397278 301.49007797 C-244.04771689 297.45570825 -248.09173071 293.41183184 -252.12851906 289.36049843 C-253.61012316 287.87680405 -255.09513737 286.39650582 -256.58382225 284.91991615 C-258.61912243 282.90008254 -260.64163784 280.86823368 -262.66149902 278.83297729 C-263.25021616 278.25454728 -263.83893331 277.67611727 -264.44549036 277.08015907 C-272.05407543 269.34326887 -274.30304218 261.56883928 -274.31469727 250.85522461 C-274.00901289 235.86583755 -263.57239953 227.42308137 -253.63221741 217.48504639 C-252.24738849 216.09470243 -252.24738849 216.09470243 -250.83458322 214.67627072 C-248.29132094 212.12307816 -245.7449953 209.57296072 -243.19809735 207.02339554 C-240.44442713 204.26579593 -237.69358455 201.50537778 -234.94230652 198.74539185 C-228.31151245 192.09491841 -221.67594609 185.4492166 -215.03976336 178.8041209 C-211.91095143 175.67091642 -208.78262559 172.53722669 -205.65423393 169.4036026 C-195.25131478 158.98368793 -184.84714656 148.56502284 -174.4393549 138.14997482 C-171.74414703 135.45285728 -169.04894452 132.75573439 -166.35375977 130.05859375 C-165.34902685 129.05313522 -165.34902685 129.05313522 -164.3239963 128.0273644 C-153.45920466 117.15426171 -142.60296619 106.27266068 -131.7502516 95.38750491 C-120.59747476 84.20166269 -109.43718712 73.02335919 -98.26946348 61.85243917 C-92.00335103 55.58416232 -85.74056637 49.31263792 -79.48616219 43.0326767 C-74.16395394 37.68876956 -68.83497716 32.35173073 -63.49704582 27.02352712 C-60.77501824 24.30604505 -58.05631761 21.58544196 -55.34627914 18.85599899 C-52.40655793 15.89541092 -49.45152348 12.95059315 -46.49476624 10.00701904 C-45.64348949 9.14477305 -44.79221274 8.28252706 -43.91513973 7.3941524 C-32.0354644 -4.35791814 -15.22413927 -8.749242 0 0 Z " fill="#EF3B2D" transform="translate(274,4)"/>
</svg>
