<?xml version="1.0" encoding="UTF-8"?>
<svg version="1.1" xmlns="http://www.w3.org/2000/svg" width="1600" height="1816">
<path d="M0 0 C528 0 1056 0 1600 0 C1600 6.77205505 1599.94370148 13.24301531 1599.32426071 19.93775368 C1599.25105928 20.77202857 1599.17785784 21.60630347 1599.10243818 22.46585942 C1598.85745527 25.24440264 1598.60557775 28.02227552 1598.35369873 30.80020142 C1598.17338819 32.82873041 1597.9935055 34.85729746 1597.81401038 36.88589877 C1597.3185733 42.47106073 1596.81706371 48.05566334 1596.31458151 53.64019527 C1595.76858652 59.72040219 1595.22825865 65.80111311 1594.68721771 71.8817625 C1593.73650227 82.55784293 1592.78220433 93.23359776 1591.82550812 103.90914345 C1590.79708279 115.38534586 1589.77082426 126.86173905 1588.74718475 138.33836937 C1588.68241968 139.06447673 1588.61765461 139.79058408 1588.55092697 140.53869469 C1588.22052501 144.24308574 1587.89015958 147.94748004 1587.55980811 151.65187559 C1585.16036448 178.55729572 1582.75628902 205.46230036 1580.34985352 232.36709595 C1577.94369498 259.26904703 1575.53967149 286.17118764 1573.13842773 313.07357788 C1573.06337747 313.91439827 1572.98832721 314.75521865 1572.9110027 315.62151845 C1572.0711016 325.03134425 1571.23126818 334.4411761 1570.39146805 343.85101092 C1568.91203521 360.42782946 1567.43238318 377.00462843 1565.95266265 393.58142129 C1565.79485542 395.34928096 1565.6370489 397.1171407 1565.4792431 398.88500049 C1562.9796027 426.88781489 1560.47882463 454.89052754 1557.97729492 482.89317322 C1557.81280167 484.73455796 1557.64830859 486.57594273 1557.48381567 488.4173275 C1557.15408317 492.10845368 1556.82435028 495.79957982 1556.49461699 499.49070593 C1556.32938861 501.34031929 1556.16416024 503.18993265 1555.99893188 505.03954601 C1555.87611838 506.41435443 1555.87611838 506.41435443 1555.7508238 507.81693676 C1547.52347224 599.91632734 1539.30728863 692.01671098 1530.35623096 792.4299614 C1530.10944615 795.19842053 1529.86266022 797.96687956 1529.61587396 800.73533857 C1526.67407075 833.73663613 1523.73236515 866.7379424 1520.79084839 899.7392655 C1516.53593021 947.47582672 1512.27993077 995.2122914 1508.0229381 1042.94866766 C1505.16484359 1074.99831375 1502.30694006 1107.04797688 1499.44921875 1139.09765625 C1499.37472113 1139.93315544 1499.3002235 1140.76865463 1499.22346837 1141.62947197 C1491.62276127 1226.87246419 1484.02852105 1312.11602237 1476.45474944 1397.36141275 C1475.50765199 1408.02114322 1474.5602332 1418.68084512 1473.61278574 1429.34054448 C1472.81471587 1438.31971656 1472.01673076 1447.29889617 1471.21875 1456.27807617 C1471.13422098 1457.22921026 1471.04969196 1458.18034435 1470.96260145 1459.16030069 C1469.05042299 1480.67660881 1467.13960688 1502.19303635 1465.23274855 1523.70981667 C1464.04833371 1537.07458741 1462.86228735 1550.43921229 1461.67429847 1563.80366582 C1461.06013716 1570.71354595 1460.44687896 1577.6235032 1459.83634377 1584.53370476 C1459.29635977 1590.64480193 1458.75398006 1596.75568107 1458.20953083 1602.866382 C1458.01619424 1605.04147776 1457.82379911 1607.21665744 1457.63243198 1609.39192736 C1457.37594942 1612.30605095 1457.1161315 1615.21985787 1456.85542297 1618.13360596 C1456.78254446 1618.97111356 1456.70966595 1619.80862116 1456.634579 1620.67150778 C1456.28772658 1624.50895567 1455.86381769 1628.23578001 1455 1632 C1442.75489788 1635.93991697 1430.47267389 1639.63779371 1418.07421875 1643.0625 C1416.38838347 1643.53097187 1414.702641 1643.99977786 1413.01698303 1644.46888733 C1409.43795755 1645.46435308 1405.85842023 1646.45794642 1402.27844238 1647.44998169 C1393.61826536 1649.85005044 1384.96108525 1652.2608964 1376.30370712 1654.67103767 C1374.32301858 1655.22240557 1372.3422979 1655.77365802 1370.36154556 1656.32479668 C1351.27282998 1661.63629756 1332.19942128 1667.00100748 1313.13226318 1672.38931656 C1305.90225013 1674.4323843 1298.67184926 1676.4740795 1291.44140625 1678.515625 C1290.64389576 1678.74082132 1289.84638527 1678.96601765 1289.02470779 1679.1980381 C1269.91874606 1684.59248648 1250.80357751 1689.95402928 1231.6875 1695.3125 C1229.98672359 1695.78928179 1228.28594844 1696.26606808 1226.58517456 1696.74285889 C1223.16450609 1697.70179626 1219.74383666 1698.66073022 1216.32316589 1699.61965942 C1215.47053854 1699.85868107 1214.61791119 1700.09770271 1213.73944664 1700.34396744 C1212.01008024 1700.82876571 1210.28071139 1701.31355522 1208.5513401 1701.79833603 C1187.30319188 1707.75473777 1166.05752866 1713.71998226 1144.8125 1719.6875 C1143.87505196 1719.9508099 1142.93760391 1720.2141198 1141.97174835 1720.48540878 C1115.61665596 1727.88808466 1089.2649521 1735.30268762 1062.91675186 1742.72985458 C1037.41125477 1749.91942679 1011.89805744 1757.08132604 986.38214111 1764.23382568 C963.78183766 1770.56904298 941.18440533 1776.9141925 918.59385204 1783.28409576 C913.5584044 1784.70378338 908.52238891 1786.1214428 903.48608398 1787.53808594 C900.61570147 1788.34562783 897.745345 1789.15326228 894.875 1789.9609375 C894.1636194 1790.16108459 893.45223881 1790.36123169 892.71930122 1790.56744385 C883.1867635 1793.25000652 873.65838931 1795.94688817 864.13332462 1798.65586662 C857.14990009 1800.64169396 850.16448495 1802.62041371 843.17774105 1804.59453011 C838.97984581 1805.78108802 834.78309895 1806.97140357 830.58889771 1808.17095947 C826.68569881 1809.28727767 822.77986643 1810.39384579 818.87184143 1811.49314499 C817.43860183 1811.89820415 816.00637167 1812.30685536 814.57527161 1812.71940994 C800.93196293 1816.64861753 792.19768552 1815.82060632 778.734375 1811.8828125 C777.18463758 1811.4381297 775.63461587 1810.99443665 774.08433533 1810.551651 C770.73727532 1809.59360069 767.39217213 1808.62908633 764.0484314 1807.65951538 C758.65100361 1806.09467621 753.24937504 1804.54470861 747.84692383 1802.99731445 C742.11932339 1801.35620762 736.39192802 1799.71441293 730.66584778 1798.06800842 C711.59562281 1792.58573803 692.50209388 1787.18712412 673.4046936 1781.80041504 C667.63422835 1780.17270249 661.86429136 1778.54312322 656.09448242 1776.91308594 C654.65180669 1776.5055178 654.65180669 1776.5055178 653.179986 1776.08971596 C651.23293456 1775.53965361 649.28588415 1774.98958761 647.33883476 1774.43951797 C643.43784804 1773.33750448 639.5367875 1772.2357524 635.63572788 1771.13399696 C622.99369193 1767.56354096 610.35221227 1763.99111868 597.7109375 1760.41796875 C595.77771515 1759.8715359 593.84449269 1759.32510341 591.91127014 1758.77867126 C589.01711004 1757.96062477 586.12295016 1757.14257745 583.22879124 1756.32452679 C550.98727791 1747.21132987 518.7443971 1738.10298807 486.5 1729 C447.47452075 1717.98262942 408.45174146 1706.95571828 369.42965698 1695.92633057 C351.15111134 1690.75999773 332.87239788 1685.59425878 314.59365463 1680.42862511 C307.94832323 1678.55062547 301.30301448 1676.67254564 294.65771484 1674.79443359 C290.86425957 1673.7223245 287.07080248 1672.65022187 283.27734375 1671.578125 C282.33717911 1671.31241825 281.39701447 1671.0467115 280.42835999 1670.77295303 C267.26254063 1667.05210079 254.09650767 1663.33200513 240.93032837 1659.61242676 C233.53277785 1657.52254056 226.13528403 1655.4324537 218.73780251 1653.3423233 C213.70358593 1651.91994126 208.66933738 1650.49767261 203.63500977 1649.07568359 C193.17340724 1646.12066495 182.71222826 1643.16416197 172.2522583 1640.20336914 C169.57647633 1639.44597352 166.90047301 1638.68937887 164.2243042 1637.93334961 C161.15809455 1637.06688765 158.09256868 1636.19806273 155.02734375 1635.328125 C154.20085831 1635.09510681 153.37437286 1634.86208862 152.52284241 1634.62200928 C147.23026233 1633.11513116 147.23026233 1633.11513116 145 1632 C144.43233782 1629.1063351 144.43233782 1629.1063351 143.99082279 1625.18904018 C143.90901618 1624.47490923 143.82720958 1623.76077827 143.74292398 1623.02500698 C142.73572519 1614.02256376 141.94217646 1604.99843522 141.14683533 1595.97535706 C140.96902541 1593.98243324 140.79096429 1591.98953183 140.61267728 1589.99665064 C140.12448567 1584.53155383 139.63983607 1579.06614792 139.15577236 1573.60068417 C138.62682601 1567.63573114 138.09453687 1561.67107626 137.56267357 1555.70638275 C136.62868623 1545.22686027 135.69678962 1534.7471533 134.76629066 1524.26732063 C133.76366726 1512.9753511 132.75973875 1501.68349867 131.75426292 1490.39178276 C131.69046461 1489.67530761 131.6266663 1488.95883247 131.5609347 1488.22064595 C131.23528428 1484.56356706 130.90961125 1480.90649019 130.58392899 1477.24941414 C128.21472606 1450.64531429 125.84818171 1424.0409785 123.48297119 1397.43652344 C121.11386542 1370.78845153 118.74351922 1344.14049039 116.371521 1317.49267578 C116.29729882 1316.65883718 116.22307665 1315.82499857 116.14660531 1314.96589213 C115.16228115 1303.90770293 114.17787995 1292.84952059 113.19345605 1281.79134026 C112.0314625 1268.73847544 110.86952787 1255.68560536 109.70758514 1242.63273601 C109.31425121 1238.21415777 108.92091512 1233.79557973 108.5275743 1229.37700211 C106.34925756 1204.90694779 104.17134874 1180.43685719 101.99376534 1155.96673761 C93.38241143 1059.19863172 84.76241177 962.43129967 72.60728183 826.12701696 C71.97385331 819.02437899 71.34043512 811.92174009 70.70702338 804.81910062 C65.00101082 740.83587041 59.29442597 676.85269125 53.58765936 612.86952829 C51.47077121 589.13538113 49.35391696 565.40123094 47.23714168 541.66707371 C46.8213264 537.00478196 46.40550902 532.3424904 45.98968638 527.68019931 C42.36796536 487.07268463 38.74684949 446.46511621 35.12844152 405.85730616 C34.81812666 402.37478941 34.50780499 398.89227327 34.1974836 395.4097571 C31.6655039 366.99511309 31.6655039 366.99511309 30.52166618 354.15701785 C26.90808252 313.59927633 23.29027536 273.04191691 19.66397439 232.48531034 C19.28803675 228.28080901 18.91211033 224.07630668 18.53619576 219.87180328 C18.46214437 219.04355953 18.38809298 218.21531577 18.31179761 217.36197372 C17.21572107 205.10223111 16.12066006 192.84239814 15.02653313 180.58248138 C14.95613735 179.79368819 14.88574157 179.004895 14.81321258 178.19219899 C14.11412217 170.35859156 13.41518345 162.52497062 12.71644838 154.69133149 C12.3753185 150.8669257 12.03414551 147.04252375 11.69294357 143.21812439 C11.62605429 142.46838286 11.55916502 141.71864132 11.49024879 140.94618035 C10.4317827 129.08329828 9.36998593 117.22071674 8.30676287 105.35826017 C7.26291108 93.71126928 6.22254061 82.06397254 5.18564406 70.41636026 C4.63059336 64.18265316 4.07395913 57.94909824 3.51302481 51.71591759 C3.00265149 46.0443316 2.49674017 40.37236607 1.99440448 34.70006269 C1.81283209 32.65876946 1.62961869 30.61762137 1.44457693 28.57663971 C1.1935592 25.80533585 0.94857933 23.03355987 0.70505333 20.26158905 C0.63256551 19.47743872 0.56007769 18.69328838 0.48539327 17.88537592 C-0.03440712 11.85661275 0 6.11855226 0 0 Z " fill="#E34F26" transform="translate(0,0)"/>
<path d="M0 0 C331.32 0 662.64 0 1004 0 C1004 6.59439212 1003.98460078 13.06995388 1003.58984375 19.6328125 C1003.54253113 20.43766586 1003.49521851 21.24251923 1003.44647217 22.07176208 C1003.28384556 24.75666916 1003.11231555 27.44085959 1002.9375 30.125 C1002.84488388 31.55475662 1002.84488388 31.55475662 1002.75039673 33.01339722 C1001.12487238 57.51378235 998.3238266 81.89129058 995.61519814 106.28917122 C993.99792366 120.86461783 992.48109012 135.44942435 991.01675415 150.04098511 C990.75950277 152.59969141 990.50058371 155.15823071 990.23983765 157.71658325 C989.87705617 161.27809583 989.51975779 164.84011728 989.1640625 168.40234375 C989.06020737 169.41541595 988.95635223 170.42848816 988.84934998 171.47225952 C987.94527503 180.65555905 987.51358915 189.7553953 987 199 C733.89 199 480.78 199 220 199 C220.99 206.425 220.99 206.425 222 214 C222.31174418 217.05951182 222.60611632 220.10615651 222.8503418 223.16992188 C222.95116058 224.37509933 222.95116058 224.37509933 223.05401611 225.60462379 C223.27249701 228.22572899 223.48582141 230.8472265 223.69921875 233.46875 C223.8563747 235.36265168 224.01392215 237.25652091 224.17182922 239.15036011 C224.50691457 243.17614907 224.83993107 247.20210093 225.17114258 251.22821045 C226.04784102 261.88454766 226.93513664 272.54000226 227.82421875 283.1953125 C227.9141296 284.27424397 228.00404045 285.35317543 228.09667587 286.46480179 C229.37011241 301.72907772 230.69816809 316.98753952 232.08203125 332.2421875 C232.24716442 334.06857972 232.41225986 335.89497535 232.57731628 337.72137451 C233.27419424 345.42241216 233.97521065 353.12299057 234.69314861 360.82209587 C234.98333541 363.95021108 235.26734881 367.07886703 235.54994774 370.20767593 C235.67952462 371.6266654 235.81175192 373.04541636 235.94713783 374.46386337 C236.92586952 384.72747676 237 394.61709304 237 405 C478.23 405 719.46 405 968 405 C968 410.95641925 967.89244534 415.80984528 967.01171875 421.55078125 C966.90785355 422.24850143 966.80398834 422.94622162 966.69697571 423.66508484 C966.36666122 425.88187401 966.02813504 428.097275 965.6875 430.3125 C961.58658287 457.01621807 959.33840854 483.89538345 957.12545776 510.80706787 C956.3691663 520.00237634 955.59901264 529.19653047 954.828125 538.390625 C954.75071012 539.31473553 954.67329525 540.23884605 954.59353447 541.19095993 C953.17617867 558.09273966 951.67569352 574.98598544 950.12147141 591.87567902 C949.56532816 597.91960126 949.01101205 603.96369171 948.45703125 610.0078125 C948.36613818 610.99917017 948.36613818 610.99917017 948.27340889 612.01055527 C946.84636777 627.58650829 945.47801003 643.16746115 944.125 658.75 C944.06447575 659.44660988 944.00395149 660.14321976 943.94159317 660.86093903 C942.31265589 679.61364705 940.71165816 698.36867041 939.125 717.125 C938.54321922 723.9998163 937.96127725 730.87461894 937.37909317 737.74940109 C937.20958083 739.75118082 937.04010405 741.75296356 936.87066269 743.7547493 C934.23979032 774.82961799 931.50476155 805.89370813 928.68664932 836.95212555 C926.12666037 865.16826708 923.6713362 893.3913343 921.3125 921.625 C919.31478357 945.52691545 917.29079304 969.42513057 915.125 993.3125 C915.02136139 994.46333069 914.91772278 995.61416138 914.8109436 996.79986572 C914.52509186 999.96709029 914.23594605 1003.13399231 913.9453125 1006.30078125 C913.82238579 1007.66308113 913.82238579 1007.66308113 913.69697571 1009.05290222 C913.29224255 1013.40738215 912.79301913 1017.69459988 912 1022 C908.66722393 1023.00186363 905.33378292 1024.00149191 902 1025 C901.12875488 1025.26103516 900.25750977 1025.52207031 899.35986328 1025.79101562 C886.5247936 1029.6218122 873.64426596 1033.18702441 860.66845703 1036.51025391 C852.10605418 1038.70380453 843.58445796 1041.0137081 835.07861328 1043.41601562 C832.96970162 1044.0085123 830.85840648 1044.59162756 828.74609375 1045.171875 C821.32997531 1047.21159968 813.9351273 1049.30692149 806.55957031 1051.48925781 C795.64664372 1054.71442054 784.69012836 1057.68752395 773.66650391 1060.51074219 C765.10475938 1062.70415481 756.58381154 1065.01389066 748.07861328 1067.41601562 C745.96970162 1068.0085123 743.85840648 1068.59162756 741.74609375 1069.171875 C734.32997531 1071.21159968 726.9351273 1073.30692149 719.55957031 1075.48925781 C708.64664372 1078.71442054 697.69012836 1081.68752395 686.66650391 1084.51074219 C678.10475938 1086.70415481 669.58381154 1089.01389066 661.07861328 1091.41601562 C658.96970162 1092.0085123 656.85840648 1092.59162756 654.74609375 1093.171875 C647.32997531 1095.21159968 639.9351273 1097.30692149 632.55957031 1099.48925781 C621.64664372 1102.71442054 610.69012836 1105.68752395 599.66650391 1108.51074219 C591.10475938 1110.70415481 582.58381154 1113.01389066 574.07861328 1115.41601562 C571.96970162 1116.0085123 569.85840648 1116.59162756 567.74609375 1117.171875 C560.26214029 1119.23017266 552.79896562 1121.34455304 545.35424805 1123.54101562 C536.11924778 1126.26281681 526.86860421 1128.90603358 517.5625 1131.375 C516.16994995 1131.75096313 516.16994995 1131.75096313 514.74926758 1132.13452148 C505.15585253 1134.6426552 497.88252067 1135.50376052 488.25 1132.8125 C487.36803955 1132.57909912 486.4860791 1132.34569824 485.57739258 1132.10522461 C479.88719499 1130.58072041 474.26083634 1128.8827923 468.6484375 1127.09375 C463.73550106 1125.62092109 458.77837276 1124.34362494 453.8125 1123.0625 C441.7772473 1119.9560629 429.78296394 1116.73666701 417.87280273 1113.17797852 C409.49176376 1110.67429333 401.06145988 1108.42028212 392.5925293 1106.23291016 C381.63286533 1103.39903209 370.71942497 1100.41888761 359.87280273 1097.17797852 C351.49176376 1094.67429333 343.06145988 1092.42028212 334.5925293 1090.23291016 C323.63286533 1087.39903209 312.71942497 1084.41888761 301.87280273 1081.17797852 C293.49176376 1078.67429333 285.06145988 1076.42028212 276.5925293 1074.23291016 C265.70026793 1071.41646061 254.8505045 1068.46449718 244.07495117 1065.22851562 C235.86913575 1062.76766694 227.60976675 1060.57001735 219.3125 1058.4375 C209.293842 1055.86256025 199.33955115 1053.17864684 189.42236328 1050.23486328 C177.95210833 1046.83432939 166.489628 1043.54278823 154.86767578 1040.69897461 C146.97474625 1038.76511937 139.18124867 1036.53730422 131.39160156 1034.22607422 C119.66945925 1030.75071506 107.95772209 1027.36952234 96.06787109 1024.51000977 C90.17969694 1023.08984847 90.17969694 1023.08984847 88 1022 C87.64801025 1020.22721863 87.64801025 1020.22721863 87.50097656 1017.86010742 C87.44015396 1016.961082 87.37933136 1016.06205658 87.31666565 1015.13578796 C87.22952553 1013.63577995 87.22952553 1013.63577995 87.140625 1012.10546875 C87.07121201 1011.05096024 87.00179901 1009.99645172 86.93028259 1008.9099884 C86.77751376 1006.58095242 86.62888445 1004.25164234 86.48373413 1001.92211914 C86.11873125 996.0900794 85.72537493 990.25995761 85.33145714 984.42981339 C85.23731452 983.0354329 85.14348952 981.64103094 85.04996681 980.24660873 C83.95549829 963.94062029 82.67805945 947.6502555 81.37601089 931.35971832 C81.12150464 928.17389152 80.8679476 924.98798941 80.61435604 921.80208969 C80.15400626 916.01880492 79.69319381 910.23555732 79.2313385 904.45239258 C78.24760013 892.13166283 77.27334654 879.81020538 76.3046875 867.48828125 C76.23343784 866.581991 76.16218819 865.67570076 76.08877945 864.74194717 C75.57970029 858.26548986 75.07106516 851.7889977 74.5625 845.3125 C73.97933708 837.88670536 73.39600912 830.4609237 72.8125 823.03515625 C72.73960629 822.10735226 72.66671257 821.17954826 72.59160995 820.223629 C71.56679701 807.18148942 70.53687745 794.13976111 69.50331116 781.09831238 C68.9266457 773.8219195 68.35123197 766.54542779 67.77609158 759.26891422 C67.30553605 753.31710774 66.83328547 747.36543888 66.35979652 741.41386509 C66.06837886 737.74569362 65.7785829 734.07739538 65.48924255 730.40905952 C65.35464584 728.70691044 65.21936653 727.00481517 65.08335876 725.30277824 C64.89759939 722.97705582 64.71425149 720.65115528 64.53149414 718.32519531 C64.42825333 717.02366516 64.32501251 715.72213501 64.21864319 714.38116455 C64.03830223 711.59231735 64 708.794672 64 706 C129.67 706 195.34 706 263 706 C268.75878318 767.04310173 268.75878318 767.04310173 271.00811768 792.87908936 C271.37772214 797.12029742 271.74957321 801.36130914 272.12141418 805.60232162 C272.4205274 809.0138782 272.71911234 812.42547807 273.01611328 815.83721924 C273.53141241 821.73994835 274.05537466 827.64135531 274.61523438 833.54003906 C274.70919998 834.53725479 274.80316559 835.53447052 274.89997864 836.56190491 C275.07018976 838.35605593 275.24355886 840.14991235 275.42118835 841.94334412 C276.18088605 849.96412675 276.19213394 857.95172277 276 866 C276.61383545 866.11827148 277.2276709 866.23654297 277.86010742 866.35839844 C283.71976757 867.50605737 289.5223789 868.79300874 295.3125 870.25 C296.16714844 870.46398438 297.02179688 870.67796875 297.90234375 870.8984375 C305.02919296 872.70612228 312.08942938 874.71642962 319.1484375 876.77075195 C325.00695593 878.46416233 330.88673897 879.99864006 336.8125 881.4375 C344.19141764 883.23254957 351.47165524 885.27150785 358.75 887.4375 C367.85477454 890.14479922 376.99902152 892.55007028 386.2253418 894.80493164 C392.54852707 896.35988072 398.81318587 898.04669434 405.0625 899.875 C413.82791543 902.43793218 422.65186999 904.74304369 431.5 907 C440.30253291 909.2468789 449.08707536 911.52947811 457.8125 914.0625 C465.79509208 916.3778111 473.79373667 918.62536088 481.8125 920.8125 C482.90473877 921.11486572 483.99697754 921.41723145 485.12231445 921.72875977 C494.17605942 924.18340554 501.18882913 925.72949987 510.3125 923 C511.98788982 922.52855466 513.66369712 922.05859128 515.33984375 921.58984375 C516.69505127 921.20481689 516.69505127 921.20481689 518.07763672 920.81201172 C522.3386086 919.62805245 526.62309043 918.5412376 530.90795898 917.44750977 C540.89541854 914.89807375 550.83130014 912.22695799 560.72607422 909.34008789 C568.60874191 907.06362137 576.55084719 905.02857143 584.5 903 C594.13903882 900.539295 603.74064012 897.99172017 613.29443359 895.21655273 C630.17882057 890.32149937 647.20446004 885.93504339 664.22924805 881.55932617 C672.01720364 879.5456392 679.75096481 877.38260347 687.47485352 875.13745117 C699.5382747 871.65465696 711.73346263 868.67487773 724 866 C724.05043457 865.03239746 724.10086914 864.06479492 724.15283203 863.06787109 C724.81375073 850.89781855 725.80837454 838.76544436 726.875 826.625 C726.96370361 825.60656006 727.05240723 824.58812012 727.14379883 823.53881836 C728.22333117 811.17018553 729.3967071 798.82866777 730.85498047 786.49853516 C732.14006463 775.35366431 733.05239329 764.17749223 734 753 C735.11836044 739.80838262 736.29953723 726.64457001 737.85546875 713.49609375 C739.2563474 701.34008223 740.22487045 689.14482489 741.25823975 676.95333862 C742.32684351 664.37496601 743.44591948 651.81733474 744.9609375 639.28320312 C746.24467529 628.53189914 747.05953149 617.81538783 748 607 C518.65 607 289.3 607 53 607 C45.24550812 523.91615847 45.24550812 523.91615847 41.95941162 486.80801392 C40.60283791 471.49353857 39.22445346 456.181012 37.84893799 440.86822891 C37.47468616 436.70147062 37.10062675 432.53469506 36.7265625 428.36791992 C36.19624432 422.46071733 35.66588698 416.55351826 35.13546371 410.64632511 C34.17072933 399.9022653 33.20636077 389.15817268 32.2421875 378.4140625 C32.17023289 377.61224926 32.09827827 376.81043602 32.02414322 375.98432541 C31.66125256 371.94049879 31.29836785 367.89667163 30.93548584 363.85284424 C30.27998308 356.54818803 29.62442728 349.24353658 28.96887589 341.93888474 C28.60424846 337.87592335 28.2396244 333.81296166 27.875 329.75 C27.72916668 328.125 27.58333335 326.5 27.4375 324.875 C27.14583333 321.625 26.85416667 318.375 26.5625 315.125 C26.4903125 314.32062563 26.418125 313.51625126 26.34375 312.68750191 C26.19791621 311.06249559 26.05208288 309.43748923 25.90625 307.81248283 C25.54167731 303.75007915 25.17709675 299.68767618 24.8125 295.62527466 C24.15611449 288.31162523 23.49978411 280.99797089 22.84375 273.68428993 C22.47920582 269.62025228 22.11461519 265.55621879 21.75 261.4921875 C21.6778125 260.68756954 21.605625 259.88295158 21.53125 259.05395126 C20.51271903 247.70220838 19.49158473 236.35070209 18.46881866 224.99934006 C17.8847081 218.51533803 17.30127046 212.03127543 16.71794128 205.54720306 C16.50088488 203.1348346 16.28370806 200.72247699 16.06652832 198.31011963 C14.46855512 180.55450654 12.8887652 162.79746049 11.34719849 145.03685379 C11.11018061 142.30615646 10.87286777 139.57548488 10.63549805 136.84481812 C9.95563401 129.02050356 9.27707809 121.19608887 8.60556507 113.37105274 C8.26528614 109.41123923 7.92254644 105.45164276 7.578125 101.4921875 C7.51207376 100.73263826 7.44602253 99.97308903 7.37796974 99.19052315 C6.5022033 89.16891768 5.51102921 79.16697707 4.40234375 69.16796875 C3.15216475 57.88090449 2.20867233 46.59883873 1.49194336 35.26586914 C1.3085532 32.37529093 1.11476607 29.4855299 0.91992188 26.59570312 C0.79628083 24.70837216 0.67321137 22.82100365 0.55078125 20.93359375 C0.49457108 20.09388535 0.4383609 19.25417694 0.38044739 18.38902283 C-0.00322562 12.22237558 0 6.21118008 0 0 Z " fill="#FEFEFE" transform="translate(298,333)"/>
<path d="M0 0 C215.16 0 430.32 0 652 0 C650.85265751 26.38887735 650.85265751 26.38887735 649.64135742 38.83666992 C649.50654181 40.26899712 649.37229627 41.70137806 649.23855782 43.13380623 C648.95316988 46.18051807 648.6645141 49.22689355 648.37310219 52.27303505 C647.65401938 59.79419725 646.95430162 67.31718077 646.25187576 74.83991325 C646.00368622 77.49605899 645.75484311 80.15214294 645.50592899 82.80822086 C643.75192173 101.54741486 642.07794062 120.2936006 640.41504145 139.0410676 C640.17530058 141.74369994 639.93534823 144.44631343 639.6953392 147.14892197 C638.80924741 157.12787716 637.92480637 167.10697787 637.0412482 177.08615768 C636.47040626 183.53237482 635.89847126 189.97849433 635.32592773 196.42456055 C632.03099717 233.52187605 628.73919687 270.61898965 625.61397934 307.73106766 C624.53137503 320.57855581 623.41583651 333.42322305 622.29956055 346.26782227 C622.05569983 349.07440301 621.8125739 351.88104598 621.57006836 354.68774414 C619.9056216 373.9488016 618.16029732 393.20063034 616.33627319 412.44723511 C615.85436263 417.5386755 615.37783757 422.63061317 614.90234375 427.72265625 C614.82117813 428.59119736 614.74001251 429.45973846 614.65638733 430.354599 C611.89020462 459.14065082 611.89020462 459.14065082 609.578125 487.96484375 C608.69873619 500.58528787 607.61324351 513.16703542 606.3125 525.75 C604.11734064 547.00123321 602.25108196 568.28125816 600.375 589.5625 C600.29865452 590.4279393 600.22230904 591.2933786 600.14365005 592.18504333 C598.73439271 608.16145848 597.33316563 624.13855897 595.94921875 640.1171875 C594.92555958 651.9279074 593.86122508 663.73493517 592.79898071 675.54223633 C590.03821193 706.23868822 587.31873594 736.93877723 584.60911942 767.63978195 C584.31644126 770.95535193 584.02358583 774.27090621 583.73068237 777.5864563 C580.81240599 810.62030235 580.81240599 810.62030235 577.97883606 843.66149902 C577.21009314 852.71789696 576.37062765 861.76543878 575.5 870.8125 C574.21025569 884.31684122 573.10871081 897.83125922 572.08984375 911.35864258 C571.42892584 920.05683537 570.65122215 928.73480903 569.76507568 937.41299438 C568.82436078 946.64321799 568.00218098 955.88293059 567.1875 965.125 C567.01768473 967.041262 566.8478434 968.95752169 566.67797852 970.8737793 C565.12374336 988.44694462 563.61937916 1006.02439105 562.11270142 1023.60168457 C560.81340987 1038.74848476 559.47589416 1053.88941428 558.02539062 1069.02246094 C557.08867711 1078.8633055 556.25117395 1088.71087828 555.4375 1098.5625 C555.3738324 1099.33270477 555.31016479 1100.10290955 555.24456787 1100.89645386 C554.93825935 1104.6044172 554.63274007 1108.31244512 554.32763672 1112.02050781 C553.09308115 1127.01548232 551.69909751 1141.97684187 550.10766602 1156.93847656 C549.11209103 1166.48135009 548.367574 1176.0289814 547.69921875 1185.59960938 C547.20954639 1192.49990905 546.58334896 1199.36050801 545.76390076 1206.22892761 C545.09432766 1211.90992174 544.57536685 1217.59719907 544.09375 1223.296875 C543.91826971 1225.34345031 543.74247447 1227.38999863 543.56640625 1229.43652344 C543.47439941 1230.50704956 543.38239258 1231.57757568 543.28759766 1232.68054199 C542.796353 1238.3504978 542.28880439 1244.01898454 541.78125 1249.6875 C541.6766748 1250.85665955 541.57209961 1252.02581909 541.46435547 1253.23040771 C541.03568291 1258.02115078 540.60644775 1262.81184338 540.17724609 1267.60253906 C539.11672887 1279.44364036 538.05722024 1291.28475456 537.03125 1303.12890625 C535.90081879 1316.17548465 534.75287814 1329.22049234 533.59268951 1342.2644558 C533.26168583 1345.986467 532.93180399 1349.70857036 532.60449219 1353.4309082 C532.28054409 1357.11462087 531.95370576 1360.79806732 531.62496948 1364.48135567 C531.44477088 1366.50806748 531.26737049 1368.53502749 531.09008789 1370.56199646 C530.2672118 1379.73864896 529.19481639 1388.8659208 528 1398 C498.53178929 1406.20645561 469.05410216 1414.37802639 439.5625 1422.5 C438.83778629 1422.69960327 438.11307259 1422.89920654 437.36639786 1423.1048584 C421.28967856 1427.53244952 405.21000505 1431.94893115 389.12109375 1436.33203125 C387.86978165 1436.67293793 386.61846954 1437.0138446 385.32923889 1437.36508179 C379.51778274 1438.94773532 373.70576338 1440.5282782 367.89282227 1442.10546875 C357.42311559 1444.94960784 346.9722755 1447.84646451 336.54553223 1450.84439087 C328.57113203 1453.13358486 320.57155428 1455.32366008 312.56378174 1457.49276733 C292.97309381 1462.801445 273.40306012 1468.18490428 253.83555603 1473.578228 C247.15872506 1475.41849177 240.48173684 1477.25818495 233.8046875 1479.09765625 C233.06535477 1479.30133883 232.32602203 1479.5050214 231.56428528 1479.71487617 C215.95519411 1484.01478753 200.34258424 1488.30183096 184.72824478 1492.5826416 C182.75789338 1493.12283594 180.78756092 1493.6630993 178.81723022 1494.20336914 C167.06145894 1497.42663283 155.30537215 1500.6486656 143.54296875 1503.84765625 C142.7783432 1504.05569885 142.01371765 1504.26374146 141.22592163 1504.47808838 C137.9574761 1505.36715753 134.6886696 1506.25480092 131.41894531 1507.13916016 C124.55312963 1509.00314151 117.70919 1510.93579608 110.87109375 1512.8984375 C100.64545316 1515.83162415 90.39160408 1518.65162696 80.125 1521.4375 C77.30929825 1522.20300682 74.4937074 1522.96892072 71.67811584 1523.73483276 C69.68152779 1524.27790537 67.68489418 1524.82081049 65.68821716 1525.36355591 C57.43989339 1527.60619537 49.19430965 1529.85878869 40.94921875 1532.11328125 C37.1519383 1533.15105026 33.35462925 1534.18871451 29.55731201 1535.22634888 C27.06131432 1535.90863435 24.56542391 1536.59131242 22.06964111 1537.27438354 C18.57408621 1538.23095457 15.07810792 1539.18596301 11.58203125 1540.140625 C10.52376633 1540.43064896 9.4655014 1540.72067291 8.37516785 1541.01948547 C6.93419487 1541.41251106 6.93419487 1541.41251106 5.46411133 1541.81347656 C4.20090813 1542.15889496 4.20090813 1542.15889496 2.91218567 1542.5112915 C1 1543 1 1543 0 1543 C0 1475.35 0 1407.7 0 1338 C-1.32 1337.67 -2.64 1337.34 -4 1337 C8.15841369 1333.55165547 20.32026206 1330.13963819 32.5625 1327 C41.45968524 1324.71289643 50.27716626 1322.20637466 59.08789062 1319.60766602 C73.33753254 1315.4121696 87.68126378 1311.59077647 102.0625 1307.875 C108.94838585 1306.09508702 115.7622456 1304.20532315 122.54296875 1302.0546875 C134.93388471 1298.27440805 147.52178067 1295.11376903 160.0625 1291.875 C166.94840723 1290.09517045 173.76224973 1288.20532184 180.54296875 1286.0546875 C192.93388471 1282.27440805 205.52178067 1279.11376903 218.0625 1275.875 C224.94840723 1274.09517045 231.76224973 1272.20532184 238.54296875 1270.0546875 C250.93388471 1266.27440805 263.52178067 1263.11376903 276.0625 1259.875 C282.94840723 1258.09517045 289.76224973 1256.20532184 296.54296875 1254.0546875 C307.76867229 1250.62989659 319.16141749 1247.72267797 330.52539062 1244.79663086 C340.35484674 1242.26431639 350.11432924 1239.55713368 359.84985352 1236.68481445 C367.32149576 1234.48147407 374.8100352 1232.34596401 382.3125 1230.25 C383.31974121 1229.96842041 384.32698242 1229.68684082 385.36474609 1229.39672852 C387.29160024 1228.85949735 389.21899341 1228.32419499 391.14697266 1227.79101562 C393.12220654 1227.24337248 395.09573983 1226.68957235 397.06787109 1226.13085938 C398.04965332 1225.85564453 399.03143555 1225.58042969 400.04296875 1225.296875 C400.92364014 1225.04776367 401.80431152 1224.79865234 402.71166992 1224.54199219 C405 1224 405 1224 408 1224 C408.05319901 1223.06511246 408.10639801 1222.13022491 408.16120911 1221.16700745 C408.79874905 1210.43454345 409.6770661 1199.73526789 410.63671875 1189.02734375 C410.79834082 1187.20548371 410.95974234 1185.38360408 411.12094116 1183.56170654 C411.46322288 1179.69642975 411.80660436 1175.83125308 412.15090942 1171.96615601 C413.06688398 1161.68103514 413.97512417 1151.39522995 414.8828125 1141.109375 C414.97412256 1140.07523153 415.06543262 1139.04108807 415.15950966 1137.97560692 C416.78188989 1119.59149379 418.34848903 1101.20312535 419.88501358 1082.81166458 C422.0662612 1056.70640572 424.36280277 1030.61312495 426.72414017 1004.52355576 C428.89627598 980.52206749 430.99380373 956.51592231 433 932.5 C435.07519874 907.65805778 437.25293818 882.82697944 439.5 858 C441.65764199 834.15640723 443.76058032 810.30966319 445.75818634 786.45211411 C446.75966183 774.50226557 447.76968173 762.55312995 448.77991486 750.60401917 C449.01163896 747.86228932 449.24308711 745.12053623 449.47454834 742.37878418 C450.41966748 731.19160159 451.37257898 720.00512632 452.33864498 708.81973171 C452.77121095 703.80960563 453.20093511 698.79928034 453.62277222 693.78823853 C455.40128531 672.68660802 457.5625221 651.90787262 461 631 C461.99 623.08 462.98 615.16 464 607 C222.77 607 -18.46 607 -267 607 C-268.485 587.2 -268.485 587.2 -270 567 C-270.59526725 559.70000323 -271.19717982 552.40190677 -271.83203125 545.10546875 C-271.99106483 543.25863026 -272.14992799 541.41177708 -272.30863953 539.56491089 C-272.72251885 534.75584253 -273.13923132 529.94702414 -273.55667114 525.1382637 C-273.90516257 521.11871771 -274.25168005 517.09900232 -274.59830666 513.07929516 C-276.31822412 493.14109467 -278.06012926 473.20499607 -279.85546875 453.2734375 C-279.92691416 452.47963747 -279.99835957 451.68583744 -280.07196999 450.86798286 C-280.73794601 443.4709689 -281.40633117 436.07419141 -282.08486652 428.67831802 C-282.26780831 426.68114357 -282.4494509 424.68385024 -282.63105774 422.68655396 C-282.84827227 420.29765537 -283.06757402 417.90894517 -283.28947449 415.52047729 C-283.43138969 413.95391891 -283.43138969 413.95391891 -283.57617188 412.35571289 C-283.65863159 411.45929581 -283.74109131 410.56287872 -283.8260498 409.63929749 C-284.01547623 406.76518355 -284 403.88034951 -284 401 C-30.89 401 222.22 401 483 401 C483 395.06 483 389.12 483 383 C483.73502495 373.38851459 483.73502495 373.38851459 484.09202576 370.09049988 C484.17034575 369.35656698 484.24866573 368.62263409 484.32935905 367.8664608 C484.41016275 367.11130999 484.49096645 366.35615917 484.57421875 365.578125 C484.74071435 363.95872152 484.90642948 362.33923765 485.07142639 360.71968079 C485.50934971 356.44346174 485.95846148 352.16848893 486.40977478 347.89366531 C486.87912981 343.42587656 487.3366358 338.95687236 487.79589844 334.48803711 C489.39228314 319.0000853 491.0027439 303.51328301 492.79393005 288.0464325 C496.10385774 259.35292699 497.93516039 230.90775461 500 202 C335 202 170 202 0 202 C0 135.34 0 68.68 0 0 Z " fill="#EE652A" transform="translate(802,131)"/>
<path d="M0 0 C331.32 0 662.64 0 1004 0 C1004 6.59439212 1003.98460078 13.06995388 1003.58984375 19.6328125 C1003.54253113 20.43766586 1003.49521851 21.24251923 1003.44647217 22.07176208 C1003.28384556 24.75666916 1003.11231555 27.44085959 1002.9375 30.125 C1002.84488388 31.55475662 1002.84488388 31.55475662 1002.75039673 33.01339722 C1001.12487238 57.51378235 998.3238266 81.89129058 995.61519814 106.28917122 C993.99792366 120.86461783 992.48109012 135.44942435 991.01675415 150.04098511 C990.75950277 152.59969141 990.50058371 155.15823071 990.23983765 157.71658325 C989.87705617 161.27809583 989.51975779 164.84011728 989.1640625 168.40234375 C989.06020737 169.41541595 988.95635223 170.42848816 988.84934998 171.47225952 C987.94527503 180.65555905 987.51358915 189.7553953 987 199 C733.89 199 480.78 199 220 199 C220.99 206.425 220.99 206.425 222 214 C222.31174418 217.05951182 222.60611632 220.10615651 222.8503418 223.16992188 C222.95116058 224.37509933 222.95116058 224.37509933 223.05401611 225.60462379 C223.27249701 228.22572899 223.48582141 230.8472265 223.69921875 233.46875 C223.8563747 235.36265168 224.01392215 237.25652091 224.17182922 239.15036011 C224.50691457 243.17614907 224.83993107 247.20210093 225.17114258 251.22821045 C226.04784102 261.88454766 226.93513664 272.54000226 227.82421875 283.1953125 C227.9141296 284.27424397 228.00404045 285.35317543 228.09667587 286.46480179 C229.37011241 301.72907772 230.69816809 316.98753952 232.08203125 332.2421875 C232.24716442 334.06857972 232.41225986 335.89497535 232.57731628 337.72137451 C233.27419424 345.42241216 233.97521065 353.12299057 234.69314861 360.82209587 C234.98333541 363.95021108 235.26734881 367.07886703 235.54994774 370.20767593 C235.67952462 371.6266654 235.81175192 373.04541636 235.94713783 374.46386337 C236.92586952 384.72747676 237 394.61709304 237 405 C323.79 405 410.58 405 500 405 C500 471.66 500 538.32 500 607 C352.49 607 204.98 607 53 607 C45.24550812 523.91615847 45.24550812 523.91615847 41.95941162 486.80801392 C40.60283791 471.49353857 39.22445346 456.181012 37.84893799 440.86822891 C37.47468616 436.70147062 37.10062675 432.53469506 36.7265625 428.36791992 C36.19624432 422.46071733 35.66588698 416.55351826 35.13546371 410.64632511 C34.17072933 399.9022653 33.20636077 389.15817268 32.2421875 378.4140625 C32.17023289 377.61224926 32.09827827 376.81043602 32.02414322 375.98432541 C31.66125256 371.94049879 31.29836785 367.89667163 30.93548584 363.85284424 C30.27998308 356.54818803 29.62442728 349.24353658 28.96887589 341.93888474 C28.60424846 337.87592335 28.2396244 333.81296166 27.875 329.75 C27.72916668 328.125 27.58333335 326.5 27.4375 324.875 C27.14583333 321.625 26.85416667 318.375 26.5625 315.125 C26.4903125 314.32062563 26.418125 313.51625126 26.34375 312.68750191 C26.19791621 311.06249559 26.05208288 309.43748923 25.90625 307.81248283 C25.54167731 303.75007915 25.17709675 299.68767618 24.8125 295.62527466 C24.15611449 288.31162523 23.49978411 280.99797089 22.84375 273.68428993 C22.47920582 269.62025228 22.11461519 265.55621879 21.75 261.4921875 C21.6778125 260.68756954 21.605625 259.88295158 21.53125 259.05395126 C20.51271903 247.70220838 19.49158473 236.35070209 18.46881866 224.99934006 C17.8847081 218.51533803 17.30127046 212.03127543 16.71794128 205.54720306 C16.50088488 203.1348346 16.28370806 200.72247699 16.06652832 198.31011963 C14.46855512 180.55450654 12.8887652 162.79746049 11.34719849 145.03685379 C11.11018061 142.30615646 10.87286777 139.57548488 10.63549805 136.84481812 C9.95563401 129.02050356 9.27707809 121.19608887 8.60556507 113.37105274 C8.26528614 109.41123923 7.92254644 105.45164276 7.578125 101.4921875 C7.51207376 100.73263826 7.44602253 99.97308903 7.37796974 99.19052315 C6.5022033 89.16891768 5.51102921 79.16697707 4.40234375 69.16796875 C3.15216475 57.88090449 2.20867233 46.59883873 1.49194336 35.26586914 C1.3085532 32.37529093 1.11476607 29.4855299 0.91992188 26.59570312 C0.79628083 24.70837216 0.67321137 22.82100365 0.55078125 20.93359375 C0.49457108 20.09388535 0.4383609 19.25417694 0.38044739 18.38902283 C-0.00322562 12.22237558 0 6.21118008 0 0 Z " fill="#EBEAEA" transform="translate(298,333)"/>
<path d="M0 0 C65.67 0 131.34 0 199 0 C204.75878318 61.04310173 204.75878318 61.04310173 207.00811768 86.87908936 C207.37772214 91.12029742 207.74957321 95.36130914 208.12141418 99.60232162 C208.4205274 103.0138782 208.71911234 106.42547807 209.01611328 109.83721924 C209.53141241 115.73994835 210.05537466 121.64135531 210.61523438 127.54003906 C210.70919998 128.53725479 210.80316559 129.53447052 210.89997864 130.56190491 C211.07018976 132.35605593 211.24355886 134.14991235 211.42118835 135.94334412 C212.18088605 143.96412675 212.19213394 151.95172277 212 160 C212.61383545 160.11827148 213.2276709 160.23654297 213.86010742 160.35839844 C219.71976757 161.50605737 225.5223789 162.79300874 231.3125 164.25 C232.16714844 164.46398438 233.02179688 164.67796875 233.90234375 164.8984375 C241.02919296 166.70612228 248.08942938 168.71642962 255.1484375 170.77075195 C261.00695593 172.46416233 266.88673897 173.99864006 272.8125 175.4375 C280.19141764 177.23254957 287.47165524 179.27150785 294.75 181.4375 C303.85477454 184.14479922 312.99902152 186.55007028 322.2253418 188.80493164 C328.54852707 190.35988072 334.81318587 192.04669434 341.0625 193.875 C349.82791543 196.43793218 358.65186999 198.74304369 367.5 201 C377.12364654 203.45647117 386.71223659 205.99298351 396.24829102 208.77246094 C404.56400325 211.18959867 412.92757734 213.42190645 421.2980957 215.64086914 C422.34312256 215.91922607 423.38814941 216.19758301 424.46484375 216.484375 C425.389021 216.72897461 426.31319824 216.97357422 427.26538086 217.22558594 C430.20467937 218.05796295 433.10188087 219.03396029 436 220 C436 288.97 436 357.94 436 429 C425.63010802 426.69557956 415.69956844 424.42899279 405.609375 421.3515625 C400.29588066 419.76499141 394.93174747 418.38371739 389.5625 417 C377.61088932 413.91409707 365.70042119 410.7120037 353.87280273 407.17797852 C345.49176376 404.67429333 337.06145988 402.42028212 328.5925293 400.23291016 C317.63286533 397.39903209 306.71942497 394.41888761 295.87280273 391.17797852 C287.49176376 388.67429333 279.06145988 386.42028212 270.5925293 384.23291016 C259.63286533 381.39903209 248.71942497 378.41888761 237.87280273 375.17797852 C229.49176376 372.67429333 221.06145988 370.42028212 212.5925293 368.23291016 C201.70026793 365.41646061 190.8505045 362.46449718 180.07495117 359.22851562 C171.86913575 356.76766694 163.60976675 354.57001735 155.3125 352.4375 C145.293842 349.86256025 135.33955115 347.17864684 125.42236328 344.23486328 C113.95210833 340.83432939 102.489628 337.54278823 90.86767578 334.69897461 C82.97474625 332.76511937 75.18124867 330.53730422 67.39160156 328.22607422 C55.66945925 324.75071506 43.95772209 321.36952234 32.06787109 318.51000977 C26.17969694 317.08984847 26.17969694 317.08984847 24 316 C23.64801025 314.22721863 23.64801025 314.22721863 23.50097656 311.86010742 C23.44015396 310.961082 23.37933136 310.06205658 23.31666565 309.13578796 C23.25857224 308.13578262 23.20047882 307.13577728 23.140625 306.10546875 C23.07121201 305.05096024 23.00179901 303.99645172 22.93028259 302.9099884 C22.77751376 300.58095242 22.62888445 298.25164234 22.48373413 295.92211914 C22.11873125 290.0900794 21.72537493 284.25995761 21.33145714 278.42981339 C21.23731452 277.0354329 21.14348952 275.64103094 21.04996681 274.24660873 C19.95549829 257.94062029 18.67805945 241.6502555 17.37601089 225.35971832 C17.12150464 222.17389152 16.8679476 218.98798941 16.61435604 215.80208969 C16.15400626 210.01880492 15.69319381 204.23555732 15.2313385 198.45239258 C14.24760013 186.13166283 13.27334654 173.81020538 12.3046875 161.48828125 C12.23343784 160.581991 12.16218819 159.67570076 12.08877945 158.74194717 C11.57970029 152.26548986 11.07106516 145.7889977 10.5625 139.3125 C9.97933708 131.88670536 9.39600912 124.4609237 8.8125 117.03515625 C8.73960629 116.10735226 8.66671257 115.17954826 8.59160995 114.223629 C7.56679701 101.18148942 6.53687745 88.13976111 5.50331116 75.09831238 C4.9266457 67.8219195 4.35123197 60.54542779 3.77609158 53.26891422 C3.30553605 47.31710774 2.83328547 41.36543888 2.35979652 35.41386509 C2.06837886 31.74569362 1.7785829 28.07739538 1.48924255 24.40905952 C1.35464584 22.70691044 1.21936653 21.00481517 1.08335876 19.30277824 C0.89759939 16.97705582 0.71425149 14.65115528 0.53149414 12.32519531 C0.42825333 11.02366516 0.32501251 9.72213501 0.21864319 8.38116455 C0.03830223 5.59231735 0 2.794672 0 0 Z " fill="#EAEAEA" transform="translate(362,1039)"/>
<path d="M0 0 C166.32 0 332.64 0 504 0 C502.81033799 29.74155037 502.81033799 29.74155037 502.140625 39.6484375 C502.05685608 40.89072113 501.97308716 42.13300476 501.88677979 43.41293335 C500.934594 56.84913354 499.48159961 70.2230214 497.97595978 83.60660934 C497.34569793 89.23643709 496.73430285 94.86837361 496.11957169 100.49991417 C495.96176696 101.9449658 495.80375466 103.38999478 495.64553452 104.83500099 C494.03237963 119.56832931 492.49871869 134.309115 491.01574707 149.05609131 C490.75880473 151.60837717 490.50030468 154.16050679 490.2401123 156.71246338 C489.87720689 160.27534625 489.51982404 163.83874126 489.1640625 167.40234375 C489.06020233 168.41549149 488.95634216 169.42863922 488.84933472 170.4724884 C487.94524533 179.65570904 487.51358483 188.7554731 487 198 C326.29 198 165.58 198 0 198 C0 132.66 0 67.32 0 0 Z " fill="#FEFEFE" transform="translate(798,334)"/>
<path d="M0 0 C80.52 0 161.04 0 244 0 C244 12.37945792 244 12.37945792 243.4140625 18.625 C243.35221771 19.29684326 243.29037292 19.96868652 243.22665405 20.66088867 C243.03079917 22.77439625 242.82794166 24.88716262 242.625 27 C242.49696013 28.37886586 242.36935449 29.75777211 242.2421875 31.13671875 C241.56730318 38.38890164 240.83131217 45.63305933 240.0546875 52.875 C238.73360304 65.23697691 237.62908896 77.61930896 236.5 90 C234.10793802 116.2294482 234.10793802 116.2294482 232.75854492 128.73828125 C231.54030891 140.14573155 230.54189612 151.57539629 229.5 163 C227.07923514 189.54418112 227.07923514 189.54418112 225.72901917 202.09712219 C224.60883047 212.55327528 223.65484361 223.02584394 222.67456055 233.49584961 C222.41815904 236.23040147 222.16030119 238.9648133 221.90234375 241.69921875 C221.78825417 242.92592537 221.78825417 242.92592537 221.67185974 244.17741394 C221.20400697 249.13213082 220.64041586 254.06453311 220 259 C207.8668899 262.55169223 195.65417784 265.80455847 183.44335938 269.07666016 C177.96106408 270.54674246 172.48059476 272.02359319 167 273.5 C164.83334277 274.08336839 162.66667609 274.66670166 160.5 275.25 C158.89125 275.683125 158.89125 275.683125 157.25 276.125 C121.50000001 285.75 121.50000001 285.75 118.24902344 286.62524414 C116.0855994 287.20771696 113.92218791 287.79023638 111.75878906 288.37280273 C106.29261283 289.84468714 100.82621082 291.31572343 95.359375 292.78515625 C85.23511994 295.50724369 75.11292141 298.23607155 65 301 C54.91846706 303.75534977 44.82793098 306.47655165 34.734375 309.1875 C30.03429359 310.45045647 25.33680113 311.72260048 20.640625 313 C18.8477002 313.48641968 18.8477002 313.48641968 17.01855469 313.98266602 C14.71137309 314.60876838 12.40471229 315.23679374 10.09863281 315.86694336 C9.06577148 316.14675049 8.03291016 316.42655762 6.96875 316.71484375 C5.59879883 317.08790649 5.59879883 317.08790649 4.20117188 317.46850586 C2 318 2 318 0 318 C0 213.06 0 108.12 0 0 Z " fill="#EF652A" transform="translate(802,940)"/>
<path d="M0 0 C93.72 0 187.44 0 284 0 C284 67.65 284 135.3 284 205 C196.22 205 108.44 205 18 205 C14.54487882 172.7522023 14.54487882 172.7522023 13.60546875 162.140625 C13.4928067 160.88838638 13.38014465 159.63614777 13.2640686 158.34596252 C12.96446589 155.00578328 12.66720459 151.66541596 12.37146378 148.32489395 C12.18376988 146.2079287 11.99502461 144.09105945 11.80599976 141.97421265 C9.52202153 116.3839098 7.36262853 90.78343199 5.26936054 65.17685509 C4.97882482 61.62432533 4.68690697 58.07190999 4.39453125 54.51953125 C4.31032079 53.49424128 4.31032079 53.49424128 4.2244091 52.44823837 C3.57993847 44.62435634 2.89934889 36.80505618 2.15771484 28.98974609 C2.08783072 28.25291312 2.01794661 27.51608015 1.94594479 26.75691891 C1.61039481 23.23201199 1.27019613 19.70762369 0.92353821 16.18379211 C0.74228645 14.30943733 0.74228645 14.30943733 0.55737305 12.3972168 C0.4495903 11.30322067 0.34180756 10.20922455 0.23075867 9.08207703 C0.00465649 6.06219342 0 3.02833604 0 0 Z " fill="#E34F26" transform="translate(518,532)"/>
</svg>
