<?xml version="1.0" encoding="UTF-8"?>
<svg version="1.1" xmlns="http://www.w3.org/2000/svg" width="884" height="537">
<path d="M0 0 C10.16075492 9.37512954 14.12700421 22.79455621 15.27734375 36.2421875 C16.18269032 65.86512723 -0.5373283 90.86542199 -19.87426758 111.66577148 C-27.2558857 119.49539554 -34.69897267 126.96565577 -43.11328125 133.6875 C-74.97618693 158.77334942 -74.97618693 158.77334942 -91.75 194.578125 C-94.32046876 219.47954109 -82.35142967 238.23451958 -68.59423828 257.73095703 C-51 282.77243492 -51 282.77243492 -51 288 C-53.91943785 286.67189508 -56.07787876 285.2064602 -58.40625 283.0078125 C-59.05787109 282.39510498 -59.70949219 281.78239746 -60.38085938 281.15112305 C-61.08017578 280.48250244 -61.77949219 279.81388184 -62.5 279.125 C-63.23541016 278.42608643 -63.97082031 277.72717285 -64.72851562 277.00708008 C-92.7890405 250.19988617 -92.7890405 250.19988617 -101 239 C-101.73992187 238.01515625 -102.47984375 237.0303125 -103.2421875 236.015625 C-114.3281645 220.71175102 -122.83833859 204.38805931 -121 185 C-118.23421566 169.30878353 -107.68169931 158.0573554 -97 147 C-96.38382812 146.34386719 -95.76765625 145.68773437 -95.1328125 145.01171875 C-90.67899063 140.37676059 -85.71920993 136.41123697 -80.71484375 132.38964844 C-78.78790965 130.82812952 -76.87746649 129.24779584 -74.96875 127.6640625 C-68.49477828 122.29398502 -62.02120001 116.95042195 -55.3125 111.875 C-45.83390495 104.6532133 -36.60245533 97.04436527 -28.453125 88.328125 C-27 87 -27 87 -25 87 C-24.73574219 86.41476563 -24.47148437 85.82953125 -24.19921875 85.2265625 C-22.95568853 82.91772789 -21.59431225 81.29136558 -19.8125 79.375 C-6.20844385 64.02466749 2.20532598 45.27183192 2.1875 24.5625 C2.1884668 23.39291748 2.1884668 23.39291748 2.18945312 22.19970703 C2.12237305 14.6852146 1.22398097 7.40945624 0 0 Z " fill="#E92C2D" transform="translate(494,6)"/>
<path d="M0 0 C0 0.33 0 0.66 0 1 C-1.1859375 1.15855469 -2.371875 1.31710937 -3.59375 1.48046875 C-28.14404807 4.83491896 -28.14404807 4.83491896 -49 17 C-49.08445603 19.53387547 -49.08445603 19.53387547 -48 22 C13.95502534 62.18704346 150.24666729 40.23367825 240.984375 25.78125 C258.14131746 22.05174414 258.14131746 22.05174414 271 11 C270.80189085 7.69818088 270.04347269 5.13041807 269 2 C273.44431588 3.39678499 276.13191114 5.31245719 279 9 C279.77588446 13.26736452 279.43552263 15.25338978 277.25 19 C242.96887971 54.90446025 152.19770936 52.80399972 106 54 C56.03251481 55.13449661 6.02097274 52.13117329 -43.4375 44.9375 C-44.29449493 44.81370972 -45.15148987 44.68991943 -46.03445435 44.56237793 C-76.69484525 40.08532457 -76.69484525 40.08532457 -84.125 31.5625 C-85.34710968 27.9834645 -84.61644096 26.373442 -83 23 C-71.71650231 7.20814051 -46.09555808 1.32597485 -28 -2 C-18.15673079 -3.48342557 -9.18876629 -4.24096906 0 0 Z " fill="#0073BC" transform="translate(333,452)"/>
<path d="M0 0 C0.495 0.99 0.495 0.99 1 2 C0.44352783 2.32049316 -0.11294434 2.64098633 -0.6862793 2.97119141 C-19.09345535 13.61163445 -37.34868344 24.72140054 -54 38 C-54.5249707 38.41813965 -55.04994141 38.8362793 -55.59082031 39.26708984 C-68.61517944 49.723964 -82.93116841 61.92925778 -85.25 79.4375 C-85.58288337 93.23551574 -77.7863999 104.40419618 -70.0234375 115.109375 C-61.16660448 127.35694725 -54.10864384 138.12657114 -56.5625 153.9375 C-59.50907749 166.04908151 -66.36753833 174.47665652 -75 183 C-76.09828125 184.09634766 -76.09828125 184.09634766 -77.21875 185.21484375 C-83.47903903 191.11306382 -90.7025001 195.51561884 -98 200 C-98 196.10232195 -96.75971695 195.22981696 -94.25 192.3125 C-87.59884531 184.20420188 -83.53753097 175.89280155 -84 165.1875 C-85.42045641 154.94443102 -91.48262948 147.13356684 -97.81640625 139.35473633 C-111.04541894 122.92435663 -117.55250542 104.98917937 -116 84 C-112.54877552 64.20743553 -97.64194696 47.97626506 -81.73828125 36.640625 C-57.29795882 19.68691663 -28.95924879 6.92377215 0 0 Z " fill="#EA2C2D" transform="translate(559,113)"/>
<path d="M0 0 C0 0.66 0 1.32 0 2 C-0.67353516 2.18062988 -1.34707031 2.36125977 -2.04101562 2.54736328 C-15.26347312 6.11436229 -28.35788713 9.6917912 -41 15 C-42.02996094 15.43183594 -43.05992187 15.86367188 -44.12109375 16.30859375 C-49.17765348 18.39148337 -49.17765348 18.39148337 -52.2578125 22.65234375 C-52.50273437 23.42707031 -52.74765625 24.20179688 -53 25 C-38.49615027 32.54493193 -21.49063806 32.15724268 -5.50390625 32.203125 C-4.00277679 32.21009843 -2.50164765 32.21713944 -1.0005188 32.22424316 C3.81215743 32.24366373 8.62478891 32.24842459 13.4375 32.25 C14.25688931 32.25058914 15.07627861 32.25117828 15.92049789 32.25178528 C42.72454732 32.26540387 69.3068664 31.6253495 96 29 C97.58819891 28.84845213 99.1764151 28.69708517 100.76464844 28.54589844 C118.78831101 26.80740902 136.6975495 24.46197672 154.57299805 21.57470703 C155.85601807 21.36958496 157.13903809 21.16446289 158.4609375 20.953125 C159.58290527 20.76911133 160.70487305 20.58509766 161.86083984 20.39550781 C164.94475116 20.00696089 167.89551148 19.92863245 171 20 C167.22547063 23.10726428 162.99694004 25.24285163 158.6875 27.5 C157.95337891 27.89058594 157.21925781 28.28117187 156.46289062 28.68359375 C138.42895316 38.18861491 118.30046161 40.13974736 98.3125 42.6875 C97.52755157 42.78996033 96.74260315 42.89242065 95.93386841 42.99798584 C69.90647382 46.36067376 43.85414392 47.35983334 17.64233398 47.31567383 C14.6776613 47.3110447 11.71339928 47.31798778 8.7487793 47.33618164 C-72.59030719 47.83003032 -72.59030719 47.83003032 -91 33 C-92 32 -92 32 -92.5625 29.3125 C-91.94787438 25.69303802 -91.69898952 25.26914637 -89 23.0625 C-64.35749795 6.50446792 -29.17777957 -0.3168367 0 0 Z " fill="#0073BC" transform="translate(383,294)"/>
<path d="M0 0 C-0.845625 0.7425 -1.69125 1.485 -2.5625 2.25 C-5.18200259 4.65597856 -5.18200259 4.65597856 -5.1875 7.125 C-2.81980212 10.86347034 1.45565816 11.86614545 5.57421875 12.87890625 C6.94285825 13.12107613 8.31425518 13.34797961 9.6875 13.5625 C10.45078613 13.68471924 11.21407227 13.80693848 12.00048828 13.93286133 C45.71331069 18.97158837 79.07051343 17.50318311 112.50097656 11.18261719 C113.4184668 11.01407227 114.33595703 10.84552734 115.28125 10.671875 C116.07595703 10.5181543 116.87066406 10.36443359 117.68945312 10.20605469 C122.14223034 9.80895579 125.53488971 11.07752608 129.3984375 13.1796875 C130.20796875 13.61410156 131.0175 14.04851562 131.8515625 14.49609375 C132.68429687 14.95113281 133.51703125 15.40617187 134.375 15.875 C139.83743252 18.83666263 145.24144549 21.65622175 151 24 C151 24.66 151 25.32 151 26 C120.48504166 36.8564352 90.82856228 43.44609105 58.3125 43.3125 C57.38968231 43.31067719 56.46686462 43.30885437 55.51608276 43.30697632 C41.83970749 43.26152412 28.41277476 42.93219956 15 40 C14.16549316 39.81775879 13.33098633 39.63551758 12.47119141 39.44775391 C-18.36454845 32.45317733 -18.36454845 32.45317733 -26 21 C-26.67119062 14.06436356 -26.67119062 14.06436356 -24.40625 10.47265625 C-21.61976341 7.60926987 -18.69635326 5.97685677 -15.125 4.3125 C-14.52558594 4.01794922 -13.92617188 3.72339844 -13.30859375 3.41992188 C-3.05646385 -1.52823193 -3.05646385 -1.52823193 0 0 Z " fill="#0073BD" transform="translate(374,412)"/>
<path d="M0 0 C-0.804375 0.86625 -1.60875 1.7325 -2.4375 2.625 C-4.96924136 5.62876093 -5.71657376 8.03203262 -6 12 C2.76851099 18.57638324 13.09472952 18.72229392 23.6875 19.625 C24.82357697 19.72305435 24.82357697 19.72305435 25.98260498 19.8230896 C61.71599104 22.83011515 96.6545642 20.47583126 132.05078125 15.21875 C132.73657257 15.11882751 133.42236389 15.01890503 134.12893677 14.91595459 C137.2784525 14.44847691 140.3923682 13.91877051 143.51074219 13.27319336 C151.26108768 11.68421786 151.26108768 11.68421786 155.2265625 13.37890625 C156.01804687 14.09949219 156.80953125 14.82007813 157.625 15.5625 C162.46830866 19.63031528 167.25005528 22.40566485 173 25 C173 25.66 173 26.32 173 27 C147.49045396 33.69862097 122.27407431 38.43432006 96 41 C95.04206543 41.09716309 94.08413086 41.19432617 93.09716797 41.29443359 C82.5407675 42.24541452 71.9659576 42.24354477 61.375 42.25 C59.88033203 42.25101212 59.88033203 42.25101212 58.35546875 42.25204468 C-7.08003386 42.18182646 -7.08003386 42.18182646 -27 25 C-28.95788069 22.41915727 -29.00107899 20.97140671 -29.125 17.6875 C-27.19141923 11.34965192 -22.61734162 8.49171365 -17.01171875 5.296875 C-3.38713891 -1.69356945 -3.38713891 -1.69356945 0 0 Z " fill="#0073BC" transform="translate(361,355)"/>
<path d="M0 0 C1 2 1 2 -0.0625 5.625 C-5.30013001 18.55539909 -16.47086989 24.94489139 -28.77734375 30.30859375 C-58.50895716 42.58980514 -92.02038045 46.09398087 -123.8125 48.6875 C-124.55180756 48.74834778 -125.29111511 48.80919556 -126.05282593 48.87188721 C-146.48897973 50.52603523 -166.93747292 51.20884409 -187.4375 51.1875 C-188.43770172 51.18722809 -189.43790344 51.18695618 -190.46841431 51.18667603 C-290.57750898 51.06322233 -290.57750898 51.06322233 -316 36 C-316.33 35.34 -316.66 34.68 -317 34 C-316.11143311 34.11069824 -315.22286621 34.22139648 -314.30737305 34.33544922 C-294.89629654 36.73514621 -275.53201176 38.83764418 -256 40 C-255.10039551 40.05784668 -254.20079102 40.11569336 -253.27392578 40.17529297 C-186.10243856 44.4040976 -58.02142256 51.46508607 -3.625 3.5625 C-2.40173374 2.39038851 -1.18692153 1.20890156 0 0 Z " fill="#0073BC" transform="translate(635,480)"/>
<path d="M0 0 C0.86625 -0.01015137 1.7325 -0.02030273 2.625 -0.03076172 C14.69172918 0.13174545 25.22737618 4.52171537 34.125 12.6875 C41.85841729 20.87797504 43.79578679 30.44366039 43.58203125 41.29296875 C42.96939735 54.58078681 34.24410473 65.30478863 24.96484375 74.1875 C7.56312085 88.94949174 -14.75591216 97.84983431 -36.6875 103.4375 C-39.125 103.0625 -39.125 103.0625 -40.6875 102.4375 C-36.6748609 99.00922582 -32.44961534 96.50674014 -27.875 93.9375 C-18.60498404 88.61732574 -8.52306792 82.59063139 -1.11279297 74.77709961 C0.3125 73.4375 0.3125 73.4375 2.3125 73.4375 C2.8075 71.9525 2.8075 71.9525 3.3125 70.4375 C3.9725 70.4375 4.6325 70.4375 5.3125 70.4375 C5.3125 69.7775 5.3125 69.1175 5.3125 68.4375 C5.9725 68.4375 6.6325 68.4375 7.3125 68.4375 C7.58320312 67.86386719 7.85390625 67.29023438 8.1328125 66.69921875 C9.33174718 64.40059895 10.69721801 62.36959796 12.1875 60.25 C17.9811877 51.65154416 21.4921697 42.9216068 20.3125 32.4375 C18.17520657 24.43791602 14.60082783 17.94801775 7.36328125 13.7109375 C-4.91305603 7.46170429 -15.3050209 7.43381732 -28.6875 10.4375 C-25.16279409 4.69353482 -21.1915286 2.88115774 -14.76171875 1.12890625 C-9.87131514 0.15924658 -4.9733911 0.04132768 0 0 Z " fill="#0073BC" transform="translate(591.6875,289.5625)"/>
</svg>
