<?xml version="1.0" encoding="UTF-8"?>
<svg version="1.1" xmlns="http://www.w3.org/2000/svg" width="512" height="512">
<path d="M0 0 C146.52 0 293.04 0 444 0 C444 4.95 444 9.9 444 15 C443.67 15.33 443.34 15.66 443 16 C442.79400489 17.6794192 442.6516138 19.36669447 442.53515625 21.0546875 C442.45837646 22.13250488 442.38159668 23.21032227 442.30249023 24.32080078 C442.22329346 25.49368652 442.14409668 26.66657227 442.0625 27.875 C441.97750244 29.0697998 441.89250488 30.26459961 441.80493164 31.49560547 C441.53225461 35.33011058 441.26544189 39.16498763 441 43 C440.65101263 48.04204852 440.29614095 53.08363 439.9375 58.125 C439.85830322 59.29788574 439.77910645 60.47077148 439.69750977 61.67919922 C439.62072998 62.7570166 439.5439502 63.83483398 439.46484375 64.9453125 C439.399021 65.89937988 439.33319824 66.85344727 439.26538086 67.83642578 C439 70 439 70 438 71 C437.82512938 72.33737771 437.71256022 73.68301027 437.62695312 75.02905273 C437.57019409 75.88341415 437.51343506 76.73777557 437.45495605 77.61802673 C437.39763306 78.54716385 437.34031006 79.47630096 437.28125 80.43359375 C437.21844849 81.38186539 437.15564697 82.33013702 437.09094238 83.30714417 C436.8895726 86.35032773 436.69413803 89.39384704 436.5 92.4375 C436.24448058 96.4365366 435.98328975 100.43514498 435.71875 104.43359375 C435.661427 105.36070663 435.604104 106.28781952 435.54504395 107.24302673 C435.48828491 108.10054031 435.43152588 108.95805389 435.37304688 109.84155273 C435.32498901 110.59798569 435.27693115 111.35441864 435.22741699 112.1337738 C435 114 435 114 434 116 C433.79968333 117.80478498 433.65417173 119.61577111 433.53515625 121.42773438 C433.41998657 123.129599 433.41998657 123.129599 433.30249023 124.86584473 C433.22329346 126.09605347 433.14409668 127.32626221 433.0625 128.59375 C432.97750244 129.85135132 432.89250488 131.10895264 432.80493164 132.40466309 C432.53255366 136.43618228 432.26545549 140.46802077 432 144.5 C431.65090084 149.80243542 431.29583446 155.10442837 430.9375 160.40625 C430.85830322 161.63645874 430.77910645 162.86666748 430.69750977 164.13415527 C430.62072998 165.26873169 430.5439502 166.40330811 430.46484375 167.57226562 C430.399021 168.57439087 430.33319824 169.57651611 430.26538086 170.60900879 C430 173 430 173 429 175 C428.71492626 177.81491666 428.47977841 180.61624804 428.28125 183.4375 C428.21844849 184.27337646 428.15564697 185.10925293 428.09094238 185.97045898 C427.88996871 188.64669384 427.69434799 191.32327631 427.5 194 C427.24433692 197.52120656 426.98325797 201.04194806 426.71875 204.5625 C426.661427 205.37710693 426.604104 206.19171387 426.54504395 207.03100586 C426.11280181 212.77439638 426.11280181 212.77439638 425 215 C424.79968333 216.80478498 424.65417173 218.61577111 424.53515625 220.42773438 C424.45837646 221.56231079 424.38159668 222.69688721 424.30249023 223.86584473 C424.22329346 225.09605347 424.14409668 226.32626221 424.0625 227.59375 C423.97750244 228.85135132 423.89250488 230.10895264 423.80493164 231.40466309 C423.53255366 235.43618228 423.26545549 239.46802077 423 243.5 C422.65090084 248.80243542 422.29583446 254.10442837 421.9375 259.40625 C421.85830322 260.63645874 421.77910645 261.86666748 421.69750977 263.13415527 C421.62072998 264.26873169 421.5439502 265.40330811 421.46484375 266.57226562 C421.399021 267.57439087 421.33319824 268.57651611 421.26538086 269.60900879 C421 272 421 272 420 274 C419.83134615 275.41215919 419.7150654 276.83078159 419.62695312 278.25024414 C419.57019409 279.12777847 419.51343506 280.00531281 419.45495605 280.90943909 C419.39763306 281.85842575 419.34031006 282.80741241 419.28125 283.78515625 C419.21844849 284.75658066 419.15564697 285.72800507 419.09094238 286.72886658 C418.82150559 290.89737116 418.56207386 295.06648275 418.30224609 299.2355957 C418.11149345 302.27320142 417.91529748 305.31042089 417.71875 308.34765625 C417.661427 309.29866714 417.604104 310.24967804 417.54504395 311.22950745 C417.48828491 312.10388962 417.43152588 312.97827179 417.37304688 313.87915039 C417.32498901 314.65255264 417.27693115 315.4259549 417.22741699 316.22279358 C417 318 417 318 416 319 C415.79401504 320.67411343 415.65161769 322.35610558 415.53515625 324.03881836 C415.41998657 325.6507029 415.41998657 325.6507029 415.30249023 327.29515076 C415.22329346 328.46489944 415.14409668 329.63464813 415.0625 330.83984375 C414.97750244 332.03227188 414.89250488 333.22470001 414.80493164 334.45326233 C414.53225947 338.28104815 414.26549074 342.10920978 414 345.9375 C413.65066897 350.96780371 413.29573333 355.99766717 412.9375 361.02734375 C412.85830322 362.19506821 412.77910645 363.36279266 412.69750977 364.56590271 C412.62072998 365.64364456 412.5439502 366.72138641 412.46484375 367.83178711 C412.399021 368.78363388 412.33319824 369.73548065 412.26538086 370.71617126 C412 373 412 373 411 375 C410.82664635 376.38667106 410.70485373 377.78000103 410.61108398 379.17431641 C410.55109726 380.03505768 410.49111053 380.89579895 410.42930603 381.78262329 C410.36884598 382.71287323 410.30838593 383.64312317 410.24609375 384.6015625 C410.18092056 385.55316254 410.11574738 386.50476257 410.04859924 387.48519897 C409.84088901 390.53154285 409.63913033 393.57824825 409.4375 396.625 C409.29791716 398.68752651 409.15794816 400.75002692 409.01757812 402.8125 C408.67389991 407.87470782 408.33555965 412.9372478 408 418 C407.34 418 406.68 418 406 418 C406.03480469 419.16789063 406.03480469 419.16789063 406.0703125 420.359375 C406.24218789 431.0156492 405.19185955 441.42224646 404 452 C399.38493192 454.03550767 394.62355716 455.20576372 389.75 456.4375 C384.8485064 457.6765538 380.01685922 458.95890687 375.23828125 460.6171875 C371.95085208 461.7407712 368.92208495 462.44210669 365.4375 462.6875 C364.59058594 462.75324219 363.74367188 462.81898438 362.87109375 462.88671875 C362.25363281 462.92410156 361.63617188 462.96148437 361 463 C361 463.66 361 464.32 361 465 C360.11957031 465.19335938 359.23914063 465.38671875 358.33203125 465.5859375 C357.17058594 465.84632813 356.00914062 466.10671875 354.8125 466.375 C353.08966797 466.75785156 353.08966797 466.75785156 351.33203125 467.1484375 C348.40271854 467.89707779 345.7877003 468.85348313 343 470 C338.36312217 471.28625721 333.83846462 472.31215901 329 472 C329 472.66 329 473.32 329 474 C324.15758367 475.33583899 320.06562383 476.25328119 315 476 C315 476.66 315 477.32 315 478 C312.91798472 478.50546036 310.83432933 479.00416835 308.75 479.5 C307.00976562 479.91765625 307.00976562 479.91765625 305.234375 480.34375 C302 481 302 481 298 481 C298 481.66 298 482.32 298 483 C297.09378906 483.18175781 296.18757813 483.36351562 295.25390625 483.55078125 C287.14472286 485.1942866 287.14472286 485.1942866 279.25 487.625 C274.58376864 489.30343727 269.92582666 489.70177667 265 490 C265 490.66 265 491.32 265 492 C256.57142857 494.28571429 256.57142857 494.28571429 252 494 C252 494.66 252 495.32 252 496 C250.80503906 496.25394531 249.61007812 496.50789063 248.37890625 496.76953125 C246.77320878 497.1161296 245.16775527 497.46385936 243.5625 497.8125 C242.73226318 497.99192139 241.90202637 498.17134277 241.04663086 498.35620117 C236.92353838 499.26915718 232.99681979 500.25034361 229.0625 501.8125 C222.91053766 504.06173524 216.17430248 502.66950836 210 501 C210 500.34 210 499.68 210 499 C208.700625 498.87625 207.40125 498.7525 206.0625 498.625 C197.29535782 497.63715299 189.19483205 495.25160562 180.92578125 492.24609375 C174.09642055 489.83498859 167.0924231 488.42252014 160 487 C160 486.34 160 485.68 160 485 C158.75347656 484.89816406 157.50695312 484.79632813 156.22265625 484.69140625 C150.45251747 484.05027972 145.0083893 482.52654916 139.4375 480.9375 C138.42880859 480.65583984 137.42011719 480.37417969 136.38085938 480.08398438 C133.91875452 479.39552851 131.45862184 478.70077279 129 478 C129 477.34 129 476.68 129 476 C128.071875 476.0825 127.14375 476.165 126.1875 476.25 C122.76164853 476.25683803 120.17850855 475.4370482 117 474.1875 C111.27218844 471.94686848 105.54324433 470.84308665 99.51171875 469.71484375 C95.17568615 468.83220308 91.15459897 467.48821456 87 466 C80.65053513 463.96817124 74.24894637 462.27912351 67.76171875 460.74609375 C65 460 65 460 62.4765625 458.98046875 C59.88321935 457.95376665 57.42611882 457.38620885 54.6875 456.875 C53.80449219 456.70742188 52.92148438 456.53984375 52.01171875 456.3671875 C51.34785156 456.24601562 50.68398437 456.12484375 50 456 C50 455.34 50 454.68 50 454 C47.03 453.67 44.06 453.34 41 453 C39.24170934 447.6325864 38.63644236 442.75361301 38.4375 437.125 C38.68779064 432.16866342 38.68779064 432.16866342 37 428 C36.70888953 424.986778 36.47607702 421.9886373 36.28125 418.96875 C36.21844849 418.06249878 36.15564697 417.15624756 36.09094238 416.22253418 C35.82120407 412.32800911 35.56226744 408.43278157 35.30224609 404.53759766 C35.11143077 401.70188307 34.91523283 398.86657658 34.71875 396.03125 C34.661427 395.14272339 34.604104 394.25419678 34.54504395 393.33874512 C34.63997652 389.34337811 34.63997652 389.34337811 33 386 C32.81977368 384.65980681 32.70199431 383.31111183 32.61108398 381.96191406 C32.55109726 381.10301575 32.49111053 380.24411743 32.42930603 379.35919189 C32.36884598 378.42081482 32.30838593 377.48243774 32.24609375 376.515625 C32.14833397 375.06576202 32.14833397 375.06576202 32.04859924 373.58660889 C31.91106496 371.52875595 31.77587971 369.47074491 31.64282227 367.41259766 C31.44104024 364.30453061 31.22990546 361.19720599 31.01757812 358.08984375 C30.34688511 348.04736207 29.74886787 338.06954913 30 328 C29.34 328 28.68 328 28 328 C27.91435791 326.77893555 27.82871582 325.55787109 27.74047852 324.29980469 C27.42162931 319.76715719 27.09811465 315.23485265 26.77319336 310.70263672 C26.6332486 308.74146411 26.49456721 306.78020093 26.35717773 304.81884766 C26.15941569 301.99877521 25.95710433 299.17906032 25.75390625 296.359375 C25.6934462 295.48319519 25.63298615 294.60701538 25.57069397 293.70428467 C25.51070724 292.88373596 25.45072052 292.06318726 25.38891602 291.21777344 C25.33784195 290.49829529 25.28676788 289.77881714 25.23414612 289.03753662 C24.99475302 286.95434088 24.51112697 285.03132729 24 283 C23.83984316 281.66615292 23.71166464 280.32818273 23.61108398 278.98852539 C23.55109726 278.20993668 23.49111053 277.43134796 23.42930603 276.62916565 C23.36884598 275.79376755 23.30838593 274.95836945 23.24609375 274.09765625 C23.14833397 272.78733681 23.14833397 272.78733681 23.04859924 271.45054626 C22.91156473 269.59891595 22.77635091 267.74715011 22.64282227 265.89526367 C22.44047295 263.10351688 22.22942133 260.31252473 22.01757812 257.52148438 C21.31184847 247.9936548 20.7703132 238.55918744 21 229 C20.34 229 19.68 229 19 229 C18.96463638 228.42592911 18.92927277 227.85185822 18.89283752 227.26039124 C18.52519627 221.3071066 18.15110385 215.35425272 17.77319336 209.40161133 C17.6328507 207.17743227 17.4941759 204.95314733 17.35717773 202.72875977 C17.16043278 199.53893459 16.95777171 196.34953324 16.75390625 193.16015625 C16.6934462 192.15912369 16.63298615 191.15809113 16.57069397 190.12672424 C16.51070724 189.20584518 16.45072052 188.28496613 16.38891602 187.33618164 C16.31230492 186.11373497 16.31230492 186.11373497 16.23414612 184.86659241 C16.19236732 182.98783456 16.19236732 182.98783456 15 182 C14.69545598 179.3313685 14.45058534 176.6807926 14.24609375 174.00390625 C14.18092056 173.18236557 14.11574738 172.36082489 14.04859924 171.51438904 C13.91098725 169.76001981 13.77580698 168.00545847 13.64282227 166.25073242 C13.4428013 163.63190853 13.23077182 161.0142641 13.01757812 158.39648438 C12.14102733 147.24179021 11.82412755 136.18701737 12 125 C11.34 125 10.68 125 10 125 C9.87153687 123.14483765 9.87153687 123.14483765 9.74047852 121.25219727 C9.42268493 116.68041256 9.09886828 112.10907127 8.77319336 107.5378418 C8.63286615 105.55618749 8.49419099 103.57441549 8.35717773 101.5925293 C8.16039322 98.75016521 7.95774598 95.90827197 7.75390625 93.06640625 C7.66321617 91.72891075 7.66321617 91.72891075 7.57069397 90.36439514 C7.65004516 86.35508431 7.65004516 86.35508431 6 83 C5.69528526 80.00488175 5.45043923 77.02593917 5.24609375 74.0234375 C5.18092056 73.10599762 5.11574738 72.18855774 5.04859924 71.24331665 C4.91103698 69.28802282 4.77585351 67.33256045 4.64282227 65.37695312 C4.44164736 62.43563722 4.23020173 59.49519506 4.01757812 56.5546875 C3.27599565 46.01542079 2.78593358 35.56681495 3 25 C2.34 25 1.68 25 1 25 C-1.63733873 17.08798382 0 8.33999734 0 0 Z " fill="#D6BA32" transform="translate(34,4)"/>
<path d="M0 0 C59.4 0 118.8 0 180 0 C180 10 180 10 179 14 C178.81217234 15.72337713 178.66079508 17.45090798 178.53515625 19.17993164 C178.45837646 20.21102554 178.38159668 21.24211945 178.30249023 22.30445862 C178.18369507 23.96552895 178.18369507 23.96552895 178.0625 25.66015625 C177.93500366 27.37228554 177.93500366 27.37228554 177.80493164 29.1190033 C177.44114012 34.00448713 177.08535638 38.89054454 176.72949219 43.77661133 C176.46862447 47.34219866 176.20321297 50.90742725 175.9375 54.47265625 C175.81870483 56.13676292 175.81870483 56.13676292 175.69750977 57.83448792 C175.62072998 58.86242966 175.5439502 59.8903714 175.46484375 60.94946289 C175.399021 61.85451065 175.33319824 62.75955841 175.26538086 63.69203186 C175 66 175 66 174 69 C173.75296232 71.9244221 173.55225249 74.83644228 173.38671875 77.765625 C173.27438406 79.60573594 173.16165494 81.44582283 173.04858398 83.28588867 C172.99000214 84.25803314 172.93142029 85.23017761 172.87106323 86.23178101 C171.87645387 102.58554009 170.65813459 118.89343007 168.9375 135.1875 C168.85559418 135.96395874 168.77368835 136.74041748 168.68930054 137.54040527 C167.98362366 144.18550703 167.25013047 150.82733249 166.48901367 157.46630859 C165.28145411 168.04802278 164.28689594 178.63372723 163.4375 189.25 C163.37174774 190.05791992 163.30599548 190.86583984 163.23825073 191.69824219 C162.49981964 200.7970919 161.84743477 209.87389422 161.5625 219 C161.21760267 229.77992185 159.93085566 240.45108421 158.72052002 251.16040039 C157.25351988 264.05302828 157.25351988 264.05302828 156.4375 277 C156.16112795 284.33179136 155.47372962 291.58056434 154.6875 298.875 C153.39446044 310.92485445 152.22676163 322.9824954 151.14077759 335.05279541 C150.96682253 336.981781 150.79124727 338.91062134 150.61386108 340.83929443 C149.59303197 351.9584005 148.7581054 363.05312248 148.34786987 374.21337891 C148.189465 378.24423947 147.97303361 382.06359102 147 386 C145.92363281 386.24234375 144.84726562 386.4846875 143.73828125 386.734375 C136.0390315 388.49154248 128.46797177 390.39346305 120.9375 392.78515625 C115.32204681 394.54307758 109.6595322 396.14111503 104 397.75 C102.90042969 398.06815674 101.80085938 398.38631348 100.66796875 398.71411133 C99.62253906 399.00954834 98.57710938 399.30498535 97.5 399.609375 C96.5615625 399.87717773 95.623125 400.14498047 94.65625 400.42089844 C92.0154193 400.99663837 89.69309544 401.10855321 87 401 C87 401.66 87 402.32 87 403 C86.351521 403.16081055 85.70304199 403.32162109 85.03491211 403.48730469 C59.15416671 409.29077243 59.15416671 409.29077243 34.0625 417.625 C29.20619332 419.52962952 24.16562101 419.72462682 19 420 C19 420.66 19 421.32 19 422 C14.38 422.66 9.76 423.32 5 424 C5 424.66 5 425.32 5 426 C3.35 426 1.7 426 0 426 C0 285.42 0 144.84 0 0 Z " fill="#FED93F" transform="translate(256,44)"/>
<path d="M0 0 C46.2 0 92.4 0 140 0 C138.82242991 25.90654206 138.82242991 25.90654206 138 37.8125 C137.9175 39.08802734 137.835 40.36355469 137.75 41.67773438 C137.6675 42.88365234 137.585 44.08957031 137.5 45.33203125 C137.4278125 46.40171143 137.355625 47.4713916 137.28125 48.57348633 C137 51 137 51 136 52 C133.10856849 52.09523905 130.24107936 52.12553027 127.34936523 52.11352539 C125.9885231 52.11374443 125.9885231 52.11374443 124.60018921 52.1139679 C121.58630015 52.11326841 118.57247207 52.10547434 115.55859375 52.09765625 C113.47494033 52.0957922 111.39128646 52.09436824 109.30763245 52.09336853 C103.81176554 52.08954234 98.31592487 52.0797112 92.82006836 52.06866455 C86.23220614 52.05665852 79.64433517 52.05204867 73.05646515 52.04621124 C63.03762516 52.03649949 53.0188428 52.01734364 43 52 C43 77.74 43 103.48 43 130 C48.445 129.01 48.445 129.01 54 128 C57.6704983 127.64402495 61.32388118 127.32705591 65 127.0625 C72.21256578 126.49484705 79.30837535 125.73249795 86.4375 124.5 C93.81034721 123.23808133 101.17084642 122.43220804 108.625 121.8125 C109.62072021 121.72871094 110.61644043 121.64492187 111.64233398 121.55859375 C117.4474977 121.10455313 123.17751576 120.92196671 129 121 C129.02940458 124.16664666 129.04693315 127.33325747 129.0625 130.5 C129.07087891 131.386875 129.07925781 132.27375 129.08789062 133.1875 C129.09111328 134.0640625 129.09433594 134.940625 129.09765625 135.84375 C129.10289307 136.63974609 129.10812988 137.43574219 129.11352539 138.25585938 C128.99653058 141.08386293 128.63107755 143.84012166 128.26167297 146.64422607 C127.72307074 151.49312234 127.55451299 156.37105595 127.31640625 161.2421875 C127.19231429 163.63152378 127.06795714 166.02084629 126.94335938 168.41015625 C126.75170725 172.14455063 126.56230127 175.87902035 126.37768555 179.61376953 C126.1971492 183.24027843 126.00739116 186.86621584 125.81640625 190.4921875 C125.76424454 191.59666229 125.71208282 192.70113708 125.65834045 193.83908081 C125.35179345 199.54210234 124.68657719 204.90056922 123.47013855 210.47555542 C122.58156162 215.24683662 122.40523812 220.07479014 122.1484375 224.9140625 C122.05280014 226.55754166 122.05280014 226.55754166 121.95523071 228.23422241 C121.7552059 231.69747476 121.56494355 235.16118162 121.375 238.625 C121.24023093 240.98831827 121.1048205 243.35160006 120.96875 245.71484375 C120.63841897 251.47616161 120.31607843 257.23788356 120 263 C115.85606237 264.87396115 112.15789612 266.36707408 107.64453125 267.09765625 C106.69255859 267.25943359 105.74058594 267.42121094 104.75976562 267.58789062 C103.78716797 267.74451172 102.81457031 267.90113281 101.8125 268.0625 C99.85972417 268.38092906 97.90784784 268.70493645 95.95703125 269.03515625 C95.10085205 269.1731665 94.24467285 269.31117676 93.36254883 269.45336914 C90.97754177 270.00519624 89.15497622 270.86210255 87 272 C85.03191219 272.50378619 83.05062304 272.95722384 81.0625 273.375 C75.39891877 274.63146897 69.92383992 276.21198946 64.39453125 277.95703125 C55.87347952 280.57512194 47.28736377 282.81961463 38.51953125 284.43359375 C35.46175269 285.12100133 32.54026244 286.08624181 29.5625 287.0625 C23.69745736 288.93624878 18.13858284 289.75396462 12 290 C12 290.66 12 291.32 12 292 C8.04 292.66 4.08 293.32 0 294 C0 276.84 0 259.68 0 242 C3.63 241.01 7.26 240.02 11 239 C12.98 238.01 12.98 238.01 15 237 C16.47333655 236.57214347 17.96099872 236.19166319 19.45703125 235.8515625 C20.31449951 235.65296631 21.17196777 235.45437012 22.05541992 235.24975586 C23.42017456 234.94050171 23.42017456 234.94050171 24.8125 234.625 C31.13517235 233.16010258 37.42850078 231.65499111 43.6875 229.9375 C50.05644505 228.19923544 56.46406785 226.74482433 62.92456055 225.39428711 C66.81378798 224.56427704 70.31403383 223.52178637 74 222 C75.7615128 221.58340865 77.53313133 221.20714882 79.3125 220.875 C80.19550781 220.70742188 81.07851563 220.53984375 81.98828125 220.3671875 C82.65214844 220.24601563 83.31601562 220.12484375 84 220 C86.58560389 205.46539172 86.63531197 190.71946126 87 176 C69.40937236 178.60384377 69.40937236 178.60384377 52 182.1875 C51.29560791 182.35411133 50.59121582 182.52072266 49.86547852 182.69238281 C46.66185853 183.30448837 46.66185853 183.30448837 44 185 C42.57013135 185.26191776 41.12986304 185.46756702 39.6875 185.6484375 C38.78443115 185.76533936 37.8813623 185.88224121 36.95092773 186.00268555 C35.49021851 186.1869812 35.49021851 186.1869812 34 186.375 C26.07822694 187.40597315 18.2144486 188.57602382 10.36914062 190.08544922 C6.7742403 190.76108008 3.70681635 191 0 191 C0 127.97 0 64.94 0 0 Z " fill="#FFFEFC" transform="translate(274,102)"/>
<path d="M0 0 C14.19 0 28.38 0 43 0 C43 97.35 43 194.7 43 295 C40.36 294.67 37.72 294.34 35 294 C35 293.34 35 292.68 35 292 C33.88625 291.87625 32.7725 291.7525 31.625 291.625 C22.0399918 290.3935927 12.89586754 287.92424405 3.6171875 285.296875 C-1.72644393 283.78540979 -7.09678632 282.38387891 -12.47265625 280.9921875 C-16.70097183 279.80282741 -20.84229898 278.41329315 -25 277 C-35.40008852 273.49505542 -45.7021481 270.39177289 -56.50537109 268.38110352 C-60.92503571 267.5387777 -64.94413789 266.36211819 -69.12719727 264.70678711 C-71.82303979 263.68938858 -74.57213087 263.03068404 -77.375 262.375 C-82.80861244 261.09569378 -82.80861244 261.09569378 -85 260 C-85 242.84 -85 225.68 -85 208 C-78.64751992 209.27049602 -73.4858843 210.37199337 -67.5625 212.5 C-62.24682248 214.36179542 -57.07638829 215.61058326 -51.515625 216.48046875 C-48.95194055 217.00992532 -46.82927972 217.82147798 -44.4375 218.875 C-38.93720675 221.24871754 -33.26300694 222.40141994 -27.41967773 223.60498047 C-23.15491371 224.48785657 -19.13187383 225.60160816 -15 227 C-13.13242231 227.39142382 -11.25690607 227.74708194 -9.375 228.0625 C-6.19080988 228.60211765 -3.13999993 229.21500002 0 230 C0 154.1 0 78.2 0 0 Z " fill="#EAEAEA" transform="translate(195,101)"/>
<path d="M0 0 C14.19 0 28.38 0 43 0 C43 97.35 43 194.7 43 295 C40.36 294.67 37.72 294.34 35 294 C38.01031744 293.06576355 38.86650268 292.95550089 42 294 C42 197.64 42 101.28 42 2 C28.8 2 15.6 2 2 2 C2 77.9 2 153.8 2 232 C-2.88179827 231.30260025 -6.50793002 230.64344024 -11 229 C-6.58169998 227.23267999 -5.3039693 228.4845802 0 230 C0 154.1 0 78.2 0 0 Z " fill="#E5DEBB" transform="translate(195,101)"/>
<path d="M0 0 C0.66 0 1.32 0 2 0 C2 97.35 2 194.7 2 295 C0.68 295 -0.64 295 -2 295 C-1.34 294.67 -0.68 294.34 0 294 C0 196.98 0 99.96 0 0 Z " fill="#DAC458" transform="translate(238,102)"/>
<path d="M0 0 C-0.33 3.3 -0.66 6.6 -1 10 C-1.33 10 -1.66 10 -2 10 C-2 7.36 -2 4.72 -2 2 C-14.375 2.99 -14.375 2.99 -27 4 C-23.46274682 1.64183121 -20.42332134 1.33553279 -16.3125 0.875 C-15.62994141 0.78863281 -14.94738281 0.70226562 -14.24414062 0.61328125 C-9.46834599 0.04505639 -4.80836821 -0.07555236 0 0 Z " fill="#FFEA92" transform="translate(405,221)"/>
</svg>
